<?xml version="1.0" encoding="utf-8" standalone="no"?>
<!DOCTYPE svg PUBLIC "-//W3C//DTD SVG 1.1//EN"
  "http://www.w3.org/Graphics/SVG/1.1/DTD/svg11.dtd">
<!-- Created with matplotlib (https://matplotlib.org/) -->
<svg height="720pt" version="1.1" viewBox="0 0 2160 720" width="2160pt" xmlns="http://www.w3.org/2000/svg" xmlns:xlink="http://www.w3.org/1999/xlink">
 <metadata>
  <rdf:RDF xmlns:cc="http://creativecommons.org/ns#" xmlns:dc="http://purl.org/dc/elements/1.1/" xmlns:rdf="http://www.w3.org/1999/02/22-rdf-syntax-ns#">
   <cc:Work>
    <dc:type rdf:resource="http://purl.org/dc/dcmitype/StillImage"/>
    <dc:date>2021-01-05T14:56:34.284049</dc:date>
    <dc:format>image/svg+xml</dc:format>
    <dc:creator>
     <cc:Agent>
      <dc:title>Matplotlib v3.3.3, https://matplotlib.org/</dc:title>
     </cc:Agent>
    </dc:creator>
   </cc:Work>
  </rdf:RDF>
 </metadata>
 <defs>
  <style type="text/css">*{stroke-linecap:butt;stroke-linejoin:round;}</style>
 </defs>
 <g id="figure_1">
  <g id="patch_1">
   <path d="M 0 720 
L 2160 720 
L 2160 0 
L 0 0 
z
" style="fill:#ffffff;"/>
  </g>
  <g id="axes_1">
   <g id="patch_2">
    <path d="M 270 640.8 
L 1944 640.8 
L 1944 86.4 
L 270 86.4 
z
" style="fill:#ffffff;"/>
   </g>
   <g id="matplotlib.axis_1">
    <g id="xtick_1">
     <g id="line2d_1">
      <defs>
       <path d="M 0 0 
L 0 3.5 
" id="mb71bad3f2f" style="stroke:#000000;stroke-width:0.8;"/>
      </defs>
      <g>
       <use style="stroke:#000000;stroke-width:0.8;" x="491.893849" xlink:href="#mb71bad3f2f" y="640.8"/>
      </g>
     </g>
     <g id="text_1">
      <!-- 2020-03 -->
      <g transform="translate(450.111036 662.996875)scale(0.2 -0.2)">
       <defs>
        <path d="M 19.1875 8.296875 
L 53.609375 8.296875 
L 53.609375 0 
L 7.328125 0 
L 7.328125 8.296875 
Q 12.9375 14.109375 22.625 23.890625 
Q 32.328125 33.6875 34.8125 36.53125 
Q 39.546875 41.84375 41.421875 45.53125 
Q 43.3125 49.21875 43.3125 52.78125 
Q 43.3125 58.59375 39.234375 62.25 
Q 35.15625 65.921875 28.609375 65.921875 
Q 23.96875 65.921875 18.8125 64.3125 
Q 13.671875 62.703125 7.8125 59.421875 
L 7.8125 69.390625 
Q 13.765625 71.78125 18.9375 73 
Q 24.125 74.21875 28.421875 74.21875 
Q 39.75 74.21875 46.484375 68.546875 
Q 53.21875 62.890625 53.21875 53.421875 
Q 53.21875 48.921875 51.53125 44.890625 
Q 49.859375 40.875 45.40625 35.40625 
Q 44.1875 33.984375 37.640625 27.21875 
Q 31.109375 20.453125 19.1875 8.296875 
z
" id="DejaVuSans-50"/>
        <path d="M 31.78125 66.40625 
Q 24.171875 66.40625 20.328125 58.90625 
Q 16.5 51.421875 16.5 36.375 
Q 16.5 21.390625 20.328125 13.890625 
Q 24.171875 6.390625 31.78125 6.390625 
Q 39.453125 6.390625 43.28125 13.890625 
Q 47.125 21.390625 47.125 36.375 
Q 47.125 51.421875 43.28125 58.90625 
Q 39.453125 66.40625 31.78125 66.40625 
z
M 31.78125 74.21875 
Q 44.046875 74.21875 50.515625 64.515625 
Q 56.984375 54.828125 56.984375 36.375 
Q 56.984375 17.96875 50.515625 8.265625 
Q 44.046875 -1.421875 31.78125 -1.421875 
Q 19.53125 -1.421875 13.0625 8.265625 
Q 6.59375 17.96875 6.59375 36.375 
Q 6.59375 54.828125 13.0625 64.515625 
Q 19.53125 74.21875 31.78125 74.21875 
z
" id="DejaVuSans-48"/>
        <path d="M 4.890625 31.390625 
L 31.203125 31.390625 
L 31.203125 23.390625 
L 4.890625 23.390625 
z
" id="DejaVuSans-45"/>
        <path d="M 40.578125 39.3125 
Q 47.65625 37.796875 51.625 33 
Q 55.609375 28.21875 55.609375 21.1875 
Q 55.609375 10.40625 48.1875 4.484375 
Q 40.765625 -1.421875 27.09375 -1.421875 
Q 22.515625 -1.421875 17.65625 -0.515625 
Q 12.796875 0.390625 7.625 2.203125 
L 7.625 11.71875 
Q 11.71875 9.328125 16.59375 8.109375 
Q 21.484375 6.890625 26.8125 6.890625 
Q 36.078125 6.890625 40.9375 10.546875 
Q 45.796875 14.203125 45.796875 21.1875 
Q 45.796875 27.640625 41.28125 31.265625 
Q 36.765625 34.90625 28.71875 34.90625 
L 20.21875 34.90625 
L 20.21875 43.015625 
L 29.109375 43.015625 
Q 36.375 43.015625 40.234375 45.921875 
Q 44.09375 48.828125 44.09375 54.296875 
Q 44.09375 59.90625 40.109375 62.90625 
Q 36.140625 65.921875 28.71875 65.921875 
Q 24.65625 65.921875 20.015625 65.03125 
Q 15.375 64.15625 9.8125 62.3125 
L 9.8125 71.09375 
Q 15.4375 72.65625 20.34375 73.4375 
Q 25.25 74.21875 29.59375 74.21875 
Q 40.828125 74.21875 47.359375 69.109375 
Q 53.90625 64.015625 53.90625 55.328125 
Q 53.90625 49.265625 50.4375 45.09375 
Q 46.96875 40.921875 40.578125 39.3125 
z
" id="DejaVuSans-51"/>
       </defs>
       <use xlink:href="#DejaVuSans-50"/>
       <use x="63.623047" xlink:href="#DejaVuSans-48"/>
       <use x="127.246094" xlink:href="#DejaVuSans-50"/>
       <use x="190.869141" xlink:href="#DejaVuSans-48"/>
       <use x="254.492188" xlink:href="#DejaVuSans-45"/>
       <use x="290.576172" xlink:href="#DejaVuSans-48"/>
       <use x="354.199219" xlink:href="#DejaVuSans-51"/>
      </g>
     </g>
    </g>
    <g id="xtick_2">
     <g id="line2d_2">
      <g>
       <use style="stroke:#000000;stroke-width:0.8;" x="769.830702" xlink:href="#mb71bad3f2f" y="640.8"/>
      </g>
     </g>
     <g id="text_2">
      <!-- 2020-05 -->
      <g transform="translate(728.04789 662.996875)scale(0.2 -0.2)">
       <defs>
        <path d="M 10.796875 72.90625 
L 49.515625 72.90625 
L 49.515625 64.59375 
L 19.828125 64.59375 
L 19.828125 46.734375 
Q 21.96875 47.46875 24.109375 47.828125 
Q 26.265625 48.1875 28.421875 48.1875 
Q 40.625 48.1875 47.75 41.5 
Q 54.890625 34.8125 54.890625 23.390625 
Q 54.890625 11.625 47.5625 5.09375 
Q 40.234375 -1.421875 26.90625 -1.421875 
Q 22.3125 -1.421875 17.546875 -0.640625 
Q 12.796875 0.140625 7.71875 1.703125 
L 7.71875 11.625 
Q 12.109375 9.234375 16.796875 8.0625 
Q 21.484375 6.890625 26.703125 6.890625 
Q 35.15625 6.890625 40.078125 11.328125 
Q 45.015625 15.765625 45.015625 23.390625 
Q 45.015625 31 40.078125 35.4375 
Q 35.15625 39.890625 26.703125 39.890625 
Q 22.75 39.890625 18.8125 39.015625 
Q 14.890625 38.140625 10.796875 36.28125 
z
" id="DejaVuSans-53"/>
       </defs>
       <use xlink:href="#DejaVuSans-50"/>
       <use x="63.623047" xlink:href="#DejaVuSans-48"/>
       <use x="127.246094" xlink:href="#DejaVuSans-50"/>
       <use x="190.869141" xlink:href="#DejaVuSans-48"/>
       <use x="254.492188" xlink:href="#DejaVuSans-45"/>
       <use x="290.576172" xlink:href="#DejaVuSans-48"/>
       <use x="354.199219" xlink:href="#DejaVuSans-53"/>
      </g>
     </g>
    </g>
    <g id="xtick_3">
     <g id="line2d_3">
      <g>
       <use style="stroke:#000000;stroke-width:0.8;" x="1047.767556" xlink:href="#mb71bad3f2f" y="640.8"/>
      </g>
     </g>
     <g id="text_3">
      <!-- 2020-07 -->
      <g transform="translate(1005.984743 662.996875)scale(0.2 -0.2)">
       <defs>
        <path d="M 8.203125 72.90625 
L 55.078125 72.90625 
L 55.078125 68.703125 
L 28.609375 0 
L 18.3125 0 
L 43.21875 64.59375 
L 8.203125 64.59375 
z
" id="DejaVuSans-55"/>
       </defs>
       <use xlink:href="#DejaVuSans-50"/>
       <use x="63.623047" xlink:href="#DejaVuSans-48"/>
       <use x="127.246094" xlink:href="#DejaVuSans-50"/>
       <use x="190.869141" xlink:href="#DejaVuSans-48"/>
       <use x="254.492188" xlink:href="#DejaVuSans-45"/>
       <use x="290.576172" xlink:href="#DejaVuSans-48"/>
       <use x="354.199219" xlink:href="#DejaVuSans-55"/>
      </g>
     </g>
    </g>
    <g id="xtick_4">
     <g id="line2d_4">
      <g>
       <use style="stroke:#000000;stroke-width:0.8;" x="1330.260751" xlink:href="#mb71bad3f2f" y="640.8"/>
      </g>
     </g>
     <g id="text_4">
      <!-- 2020-09 -->
      <g transform="translate(1288.477939 662.996875)scale(0.2 -0.2)">
       <defs>
        <path d="M 10.984375 1.515625 
L 10.984375 10.5 
Q 14.703125 8.734375 18.5 7.8125 
Q 22.3125 6.890625 25.984375 6.890625 
Q 35.75 6.890625 40.890625 13.453125 
Q 46.046875 20.015625 46.78125 33.40625 
Q 43.953125 29.203125 39.59375 26.953125 
Q 35.25 24.703125 29.984375 24.703125 
Q 19.046875 24.703125 12.671875 31.3125 
Q 6.296875 37.9375 6.296875 49.421875 
Q 6.296875 60.640625 12.9375 67.421875 
Q 19.578125 74.21875 30.609375 74.21875 
Q 43.265625 74.21875 49.921875 64.515625 
Q 56.59375 54.828125 56.59375 36.375 
Q 56.59375 19.140625 48.40625 8.859375 
Q 40.234375 -1.421875 26.421875 -1.421875 
Q 22.703125 -1.421875 18.890625 -0.6875 
Q 15.09375 0.046875 10.984375 1.515625 
z
M 30.609375 32.421875 
Q 37.25 32.421875 41.125 36.953125 
Q 45.015625 41.5 45.015625 49.421875 
Q 45.015625 57.28125 41.125 61.84375 
Q 37.25 66.40625 30.609375 66.40625 
Q 23.96875 66.40625 20.09375 61.84375 
Q 16.21875 57.28125 16.21875 49.421875 
Q 16.21875 41.5 20.09375 36.953125 
Q 23.96875 32.421875 30.609375 32.421875 
z
" id="DejaVuSans-57"/>
       </defs>
       <use xlink:href="#DejaVuSans-50"/>
       <use x="63.623047" xlink:href="#DejaVuSans-48"/>
       <use x="127.246094" xlink:href="#DejaVuSans-50"/>
       <use x="190.869141" xlink:href="#DejaVuSans-48"/>
       <use x="254.492188" xlink:href="#DejaVuSans-45"/>
       <use x="290.576172" xlink:href="#DejaVuSans-48"/>
       <use x="354.199219" xlink:href="#DejaVuSans-57"/>
      </g>
     </g>
    </g>
    <g id="xtick_5">
     <g id="line2d_5">
      <g>
       <use style="stroke:#000000;stroke-width:0.8;" x="1608.197605" xlink:href="#mb71bad3f2f" y="640.8"/>
      </g>
     </g>
     <g id="text_5">
      <!-- 2020-11 -->
      <g transform="translate(1566.414792 662.996875)scale(0.2 -0.2)">
       <defs>
        <path d="M 12.40625 8.296875 
L 28.515625 8.296875 
L 28.515625 63.921875 
L 10.984375 60.40625 
L 10.984375 69.390625 
L 28.421875 72.90625 
L 38.28125 72.90625 
L 38.28125 8.296875 
L 54.390625 8.296875 
L 54.390625 0 
L 12.40625 0 
z
" id="DejaVuSans-49"/>
       </defs>
       <use xlink:href="#DejaVuSans-50"/>
       <use x="63.623047" xlink:href="#DejaVuSans-48"/>
       <use x="127.246094" xlink:href="#DejaVuSans-50"/>
       <use x="190.869141" xlink:href="#DejaVuSans-48"/>
       <use x="254.492188" xlink:href="#DejaVuSans-45"/>
       <use x="290.576172" xlink:href="#DejaVuSans-49"/>
       <use x="354.199219" xlink:href="#DejaVuSans-49"/>
      </g>
     </g>
    </g>
    <g id="xtick_6">
     <g id="line2d_6">
      <g>
       <use style="stroke:#000000;stroke-width:0.8;" x="1886.134458" xlink:href="#mb71bad3f2f" y="640.8"/>
      </g>
     </g>
     <g id="text_6">
      <!-- 2021-01 -->
      <g transform="translate(1844.351646 662.996875)scale(0.2 -0.2)">
       <use xlink:href="#DejaVuSans-50"/>
       <use x="63.623047" xlink:href="#DejaVuSans-48"/>
       <use x="127.246094" xlink:href="#DejaVuSans-50"/>
       <use x="190.869141" xlink:href="#DejaVuSans-49"/>
       <use x="254.492188" xlink:href="#DejaVuSans-45"/>
       <use x="290.576172" xlink:href="#DejaVuSans-48"/>
       <use x="354.199219" xlink:href="#DejaVuSans-49"/>
      </g>
     </g>
    </g>
    <g id="text_7">
     <!-- Date -->
     <g transform="translate(1083.098438 686.353125)scale(0.2 -0.2)">
      <defs>
       <path d="M 19.671875 64.796875 
L 19.671875 8.109375 
L 31.59375 8.109375 
Q 46.6875 8.109375 53.6875 14.9375 
Q 60.6875 21.78125 60.6875 36.53125 
Q 60.6875 51.171875 53.6875 57.984375 
Q 46.6875 64.796875 31.59375 64.796875 
z
M 9.8125 72.90625 
L 30.078125 72.90625 
Q 51.265625 72.90625 61.171875 64.09375 
Q 71.09375 55.28125 71.09375 36.53125 
Q 71.09375 17.671875 61.125 8.828125 
Q 51.171875 0 30.078125 0 
L 9.8125 0 
z
" id="DejaVuSans-68"/>
       <path d="M 34.28125 27.484375 
Q 23.390625 27.484375 19.1875 25 
Q 14.984375 22.515625 14.984375 16.5 
Q 14.984375 11.71875 18.140625 8.90625 
Q 21.296875 6.109375 26.703125 6.109375 
Q 34.1875 6.109375 38.703125 11.40625 
Q 43.21875 16.703125 43.21875 25.484375 
L 43.21875 27.484375 
z
M 52.203125 31.203125 
L 52.203125 0 
L 43.21875 0 
L 43.21875 8.296875 
Q 40.140625 3.328125 35.546875 0.953125 
Q 30.953125 -1.421875 24.3125 -1.421875 
Q 15.921875 -1.421875 10.953125 3.296875 
Q 6 8.015625 6 15.921875 
Q 6 25.140625 12.171875 29.828125 
Q 18.359375 34.515625 30.609375 34.515625 
L 43.21875 34.515625 
L 43.21875 35.40625 
Q 43.21875 41.609375 39.140625 45 
Q 35.0625 48.390625 27.6875 48.390625 
Q 23 48.390625 18.546875 47.265625 
Q 14.109375 46.140625 10.015625 43.890625 
L 10.015625 52.203125 
Q 14.9375 54.109375 19.578125 55.046875 
Q 24.21875 56 28.609375 56 
Q 40.484375 56 46.34375 49.84375 
Q 52.203125 43.703125 52.203125 31.203125 
z
" id="DejaVuSans-97"/>
       <path d="M 18.3125 70.21875 
L 18.3125 54.6875 
L 36.8125 54.6875 
L 36.8125 47.703125 
L 18.3125 47.703125 
L 18.3125 18.015625 
Q 18.3125 11.328125 20.140625 9.421875 
Q 21.96875 7.515625 27.59375 7.515625 
L 36.8125 7.515625 
L 36.8125 0 
L 27.59375 0 
Q 17.1875 0 13.234375 3.875 
Q 9.28125 7.765625 9.28125 18.015625 
L 9.28125 47.703125 
L 2.6875 47.703125 
L 2.6875 54.6875 
L 9.28125 54.6875 
L 9.28125 70.21875 
z
" id="DejaVuSans-116"/>
       <path d="M 56.203125 29.59375 
L 56.203125 25.203125 
L 14.890625 25.203125 
Q 15.484375 15.921875 20.484375 11.0625 
Q 25.484375 6.203125 34.421875 6.203125 
Q 39.59375 6.203125 44.453125 7.46875 
Q 49.3125 8.734375 54.109375 11.28125 
L 54.109375 2.78125 
Q 49.265625 0.734375 44.1875 -0.34375 
Q 39.109375 -1.421875 33.890625 -1.421875 
Q 20.796875 -1.421875 13.15625 6.1875 
Q 5.515625 13.8125 5.515625 26.8125 
Q 5.515625 40.234375 12.765625 48.109375 
Q 20.015625 56 32.328125 56 
Q 43.359375 56 49.78125 48.890625 
Q 56.203125 41.796875 56.203125 29.59375 
z
M 47.21875 32.234375 
Q 47.125 39.59375 43.09375 43.984375 
Q 39.0625 48.390625 32.421875 48.390625 
Q 24.90625 48.390625 20.390625 44.140625 
Q 15.875 39.890625 15.1875 32.171875 
z
" id="DejaVuSans-101"/>
      </defs>
      <use xlink:href="#DejaVuSans-68"/>
      <use x="77.001953" xlink:href="#DejaVuSans-97"/>
      <use x="138.28125" xlink:href="#DejaVuSans-116"/>
      <use x="177.490234" xlink:href="#DejaVuSans-101"/>
     </g>
    </g>
   </g>
   <g id="matplotlib.axis_2">
    <g id="ytick_1">
     <g id="line2d_7">
      <defs>
       <path d="M 0 0 
L -3.5 0 
" id="me871e716c0" style="stroke:#000000;stroke-width:0.8;"/>
      </defs>
      <g>
       <use style="stroke:#000000;stroke-width:0.8;" x="270" xlink:href="#me871e716c0" y="615.6"/>
      </g>
     </g>
     <g id="text_8">
      <!-- 0.0 -->
      <g transform="translate(231.19375 623.198437)scale(0.2 -0.2)">
       <defs>
        <path d="M 10.6875 12.40625 
L 21 12.40625 
L 21 0 
L 10.6875 0 
z
" id="DejaVuSans-46"/>
       </defs>
       <use xlink:href="#DejaVuSans-48"/>
       <use x="63.623047" xlink:href="#DejaVuSans-46"/>
       <use x="95.410156" xlink:href="#DejaVuSans-48"/>
      </g>
     </g>
    </g>
    <g id="ytick_2">
     <g id="line2d_8">
      <g>
       <use style="stroke:#000000;stroke-width:0.8;" x="270" xlink:href="#me871e716c0" y="513.211461"/>
      </g>
     </g>
     <g id="text_9">
      <!-- 0.1 -->
      <g transform="translate(231.19375 520.809899)scale(0.2 -0.2)">
       <use xlink:href="#DejaVuSans-48"/>
       <use x="63.623047" xlink:href="#DejaVuSans-46"/>
       <use x="95.410156" xlink:href="#DejaVuSans-49"/>
      </g>
     </g>
    </g>
    <g id="ytick_3">
     <g id="line2d_9">
      <g>
       <use style="stroke:#000000;stroke-width:0.8;" x="270" xlink:href="#me871e716c0" y="410.822923"/>
      </g>
     </g>
     <g id="text_10">
      <!-- 0.2 -->
      <g transform="translate(231.19375 418.42136)scale(0.2 -0.2)">
       <use xlink:href="#DejaVuSans-48"/>
       <use x="63.623047" xlink:href="#DejaVuSans-46"/>
       <use x="95.410156" xlink:href="#DejaVuSans-50"/>
      </g>
     </g>
    </g>
    <g id="ytick_4">
     <g id="line2d_10">
      <g>
       <use style="stroke:#000000;stroke-width:0.8;" x="270" xlink:href="#me871e716c0" y="308.434384"/>
      </g>
     </g>
     <g id="text_11">
      <!-- 0.3 -->
      <g transform="translate(231.19375 316.032821)scale(0.2 -0.2)">
       <use xlink:href="#DejaVuSans-48"/>
       <use x="63.623047" xlink:href="#DejaVuSans-46"/>
       <use x="95.410156" xlink:href="#DejaVuSans-51"/>
      </g>
     </g>
    </g>
    <g id="ytick_5">
     <g id="line2d_11">
      <g>
       <use style="stroke:#000000;stroke-width:0.8;" x="270" xlink:href="#me871e716c0" y="206.045845"/>
      </g>
     </g>
     <g id="text_12">
      <!-- 0.4 -->
      <g transform="translate(231.19375 213.644283)scale(0.2 -0.2)">
       <defs>
        <path d="M 37.796875 64.3125 
L 12.890625 25.390625 
L 37.796875 25.390625 
z
M 35.203125 72.90625 
L 47.609375 72.90625 
L 47.609375 25.390625 
L 58.015625 25.390625 
L 58.015625 17.1875 
L 47.609375 17.1875 
L 47.609375 0 
L 37.796875 0 
L 37.796875 17.1875 
L 4.890625 17.1875 
L 4.890625 26.703125 
z
" id="DejaVuSans-52"/>
       </defs>
       <use xlink:href="#DejaVuSans-48"/>
       <use x="63.623047" xlink:href="#DejaVuSans-46"/>
       <use x="95.410156" xlink:href="#DejaVuSans-52"/>
      </g>
     </g>
    </g>
    <g id="ytick_6">
     <g id="line2d_12">
      <g>
       <use style="stroke:#000000;stroke-width:0.8;" x="270" xlink:href="#me871e716c0" y="103.657307"/>
      </g>
     </g>
     <g id="text_13">
      <!-- 0.5 -->
      <g transform="translate(231.19375 111.255744)scale(0.2 -0.2)">
       <use xlink:href="#DejaVuSans-48"/>
       <use x="63.623047" xlink:href="#DejaVuSans-46"/>
       <use x="95.410156" xlink:href="#DejaVuSans-53"/>
      </g>
     </g>
    </g>
    <g id="text_14">
     <!-- Frequency of SNP (7 day rolling average -->
     <g transform="translate(223.034375 564.451562)rotate(-90)scale(0.2 -0.2)">
      <defs>
       <path d="M 9.8125 72.90625 
L 51.703125 72.90625 
L 51.703125 64.59375 
L 19.671875 64.59375 
L 19.671875 43.109375 
L 48.578125 43.109375 
L 48.578125 34.8125 
L 19.671875 34.8125 
L 19.671875 0 
L 9.8125 0 
z
" id="DejaVuSans-70"/>
       <path d="M 41.109375 46.296875 
Q 39.59375 47.171875 37.8125 47.578125 
Q 36.03125 48 33.890625 48 
Q 26.265625 48 22.1875 43.046875 
Q 18.109375 38.09375 18.109375 28.8125 
L 18.109375 0 
L 9.078125 0 
L 9.078125 54.6875 
L 18.109375 54.6875 
L 18.109375 46.1875 
Q 20.953125 51.171875 25.484375 53.578125 
Q 30.03125 56 36.53125 56 
Q 37.453125 56 38.578125 55.875 
Q 39.703125 55.765625 41.0625 55.515625 
z
" id="DejaVuSans-114"/>
       <path d="M 14.796875 27.296875 
Q 14.796875 17.390625 18.875 11.75 
Q 22.953125 6.109375 30.078125 6.109375 
Q 37.203125 6.109375 41.296875 11.75 
Q 45.40625 17.390625 45.40625 27.296875 
Q 45.40625 37.203125 41.296875 42.84375 
Q 37.203125 48.484375 30.078125 48.484375 
Q 22.953125 48.484375 18.875 42.84375 
Q 14.796875 37.203125 14.796875 27.296875 
z
M 45.40625 8.203125 
Q 42.578125 3.328125 38.25 0.953125 
Q 33.9375 -1.421875 27.875 -1.421875 
Q 17.96875 -1.421875 11.734375 6.484375 
Q 5.515625 14.40625 5.515625 27.296875 
Q 5.515625 40.1875 11.734375 48.09375 
Q 17.96875 56 27.875 56 
Q 33.9375 56 38.25 53.625 
Q 42.578125 51.265625 45.40625 46.390625 
L 45.40625 54.6875 
L 54.390625 54.6875 
L 54.390625 -20.796875 
L 45.40625 -20.796875 
z
" id="DejaVuSans-113"/>
       <path d="M 8.5 21.578125 
L 8.5 54.6875 
L 17.484375 54.6875 
L 17.484375 21.921875 
Q 17.484375 14.15625 20.5 10.265625 
Q 23.53125 6.390625 29.59375 6.390625 
Q 36.859375 6.390625 41.078125 11.03125 
Q 45.3125 15.671875 45.3125 23.6875 
L 45.3125 54.6875 
L 54.296875 54.6875 
L 54.296875 0 
L 45.3125 0 
L 45.3125 8.40625 
Q 42.046875 3.421875 37.71875 1 
Q 33.40625 -1.421875 27.6875 -1.421875 
Q 18.265625 -1.421875 13.375 4.4375 
Q 8.5 10.296875 8.5 21.578125 
z
M 31.109375 56 
z
" id="DejaVuSans-117"/>
       <path d="M 54.890625 33.015625 
L 54.890625 0 
L 45.90625 0 
L 45.90625 32.71875 
Q 45.90625 40.484375 42.875 44.328125 
Q 39.84375 48.1875 33.796875 48.1875 
Q 26.515625 48.1875 22.3125 43.546875 
Q 18.109375 38.921875 18.109375 30.90625 
L 18.109375 0 
L 9.078125 0 
L 9.078125 54.6875 
L 18.109375 54.6875 
L 18.109375 46.1875 
Q 21.34375 51.125 25.703125 53.5625 
Q 30.078125 56 35.796875 56 
Q 45.21875 56 50.046875 50.171875 
Q 54.890625 44.34375 54.890625 33.015625 
z
" id="DejaVuSans-110"/>
       <path d="M 48.78125 52.59375 
L 48.78125 44.1875 
Q 44.96875 46.296875 41.140625 47.34375 
Q 37.3125 48.390625 33.40625 48.390625 
Q 24.65625 48.390625 19.8125 42.84375 
Q 14.984375 37.3125 14.984375 27.296875 
Q 14.984375 17.28125 19.8125 11.734375 
Q 24.65625 6.203125 33.40625 6.203125 
Q 37.3125 6.203125 41.140625 7.25 
Q 44.96875 8.296875 48.78125 10.40625 
L 48.78125 2.09375 
Q 45.015625 0.34375 40.984375 -0.53125 
Q 36.96875 -1.421875 32.421875 -1.421875 
Q 20.0625 -1.421875 12.78125 6.34375 
Q 5.515625 14.109375 5.515625 27.296875 
Q 5.515625 40.671875 12.859375 48.328125 
Q 20.21875 56 33.015625 56 
Q 37.15625 56 41.109375 55.140625 
Q 45.0625 54.296875 48.78125 52.59375 
z
" id="DejaVuSans-99"/>
       <path d="M 32.171875 -5.078125 
Q 28.375 -14.84375 24.75 -17.8125 
Q 21.140625 -20.796875 15.09375 -20.796875 
L 7.90625 -20.796875 
L 7.90625 -13.28125 
L 13.1875 -13.28125 
Q 16.890625 -13.28125 18.9375 -11.515625 
Q 21 -9.765625 23.484375 -3.21875 
L 25.09375 0.875 
L 2.984375 54.6875 
L 12.5 54.6875 
L 29.59375 11.921875 
L 46.6875 54.6875 
L 56.203125 54.6875 
z
" id="DejaVuSans-121"/>
       <path id="DejaVuSans-32"/>
       <path d="M 30.609375 48.390625 
Q 23.390625 48.390625 19.1875 42.75 
Q 14.984375 37.109375 14.984375 27.296875 
Q 14.984375 17.484375 19.15625 11.84375 
Q 23.34375 6.203125 30.609375 6.203125 
Q 37.796875 6.203125 41.984375 11.859375 
Q 46.1875 17.53125 46.1875 27.296875 
Q 46.1875 37.015625 41.984375 42.703125 
Q 37.796875 48.390625 30.609375 48.390625 
z
M 30.609375 56 
Q 42.328125 56 49.015625 48.375 
Q 55.71875 40.765625 55.71875 27.296875 
Q 55.71875 13.875 49.015625 6.21875 
Q 42.328125 -1.421875 30.609375 -1.421875 
Q 18.84375 -1.421875 12.171875 6.21875 
Q 5.515625 13.875 5.515625 27.296875 
Q 5.515625 40.765625 12.171875 48.375 
Q 18.84375 56 30.609375 56 
z
" id="DejaVuSans-111"/>
       <path d="M 37.109375 75.984375 
L 37.109375 68.5 
L 28.515625 68.5 
Q 23.6875 68.5 21.796875 66.546875 
Q 19.921875 64.59375 19.921875 59.515625 
L 19.921875 54.6875 
L 34.71875 54.6875 
L 34.71875 47.703125 
L 19.921875 47.703125 
L 19.921875 0 
L 10.890625 0 
L 10.890625 47.703125 
L 2.296875 47.703125 
L 2.296875 54.6875 
L 10.890625 54.6875 
L 10.890625 58.5 
Q 10.890625 67.625 15.140625 71.796875 
Q 19.390625 75.984375 28.609375 75.984375 
z
" id="DejaVuSans-102"/>
       <path d="M 53.515625 70.515625 
L 53.515625 60.890625 
Q 47.90625 63.578125 42.921875 64.890625 
Q 37.9375 66.21875 33.296875 66.21875 
Q 25.25 66.21875 20.875 63.09375 
Q 16.5 59.96875 16.5 54.203125 
Q 16.5 49.359375 19.40625 46.890625 
Q 22.3125 44.4375 30.421875 42.921875 
L 36.375 41.703125 
Q 47.40625 39.59375 52.65625 34.296875 
Q 57.90625 29 57.90625 20.125 
Q 57.90625 9.515625 50.796875 4.046875 
Q 43.703125 -1.421875 29.984375 -1.421875 
Q 24.8125 -1.421875 18.96875 -0.25 
Q 13.140625 0.921875 6.890625 3.21875 
L 6.890625 13.375 
Q 12.890625 10.015625 18.65625 8.296875 
Q 24.421875 6.59375 29.984375 6.59375 
Q 38.421875 6.59375 43.015625 9.90625 
Q 47.609375 13.234375 47.609375 19.390625 
Q 47.609375 24.75 44.3125 27.78125 
Q 41.015625 30.8125 33.5 32.328125 
L 27.484375 33.5 
Q 16.453125 35.6875 11.515625 40.375 
Q 6.59375 45.0625 6.59375 53.421875 
Q 6.59375 63.09375 13.40625 68.65625 
Q 20.21875 74.21875 32.171875 74.21875 
Q 37.3125 74.21875 42.625 73.28125 
Q 47.953125 72.359375 53.515625 70.515625 
z
" id="DejaVuSans-83"/>
       <path d="M 9.8125 72.90625 
L 23.09375 72.90625 
L 55.421875 11.921875 
L 55.421875 72.90625 
L 64.984375 72.90625 
L 64.984375 0 
L 51.703125 0 
L 19.390625 60.984375 
L 19.390625 0 
L 9.8125 0 
z
" id="DejaVuSans-78"/>
       <path d="M 19.671875 64.796875 
L 19.671875 37.40625 
L 32.078125 37.40625 
Q 38.96875 37.40625 42.71875 40.96875 
Q 46.484375 44.53125 46.484375 51.125 
Q 46.484375 57.671875 42.71875 61.234375 
Q 38.96875 64.796875 32.078125 64.796875 
z
M 9.8125 72.90625 
L 32.078125 72.90625 
Q 44.34375 72.90625 50.609375 67.359375 
Q 56.890625 61.8125 56.890625 51.125 
Q 56.890625 40.328125 50.609375 34.8125 
Q 44.34375 29.296875 32.078125 29.296875 
L 19.671875 29.296875 
L 19.671875 0 
L 9.8125 0 
z
" id="DejaVuSans-80"/>
       <path d="M 31 75.875 
Q 24.46875 64.65625 21.28125 53.65625 
Q 18.109375 42.671875 18.109375 31.390625 
Q 18.109375 20.125 21.3125 9.0625 
Q 24.515625 -2 31 -13.1875 
L 23.1875 -13.1875 
Q 15.875 -1.703125 12.234375 9.375 
Q 8.59375 20.453125 8.59375 31.390625 
Q 8.59375 42.28125 12.203125 53.3125 
Q 15.828125 64.359375 23.1875 75.875 
z
" id="DejaVuSans-40"/>
       <path d="M 45.40625 46.390625 
L 45.40625 75.984375 
L 54.390625 75.984375 
L 54.390625 0 
L 45.40625 0 
L 45.40625 8.203125 
Q 42.578125 3.328125 38.25 0.953125 
Q 33.9375 -1.421875 27.875 -1.421875 
Q 17.96875 -1.421875 11.734375 6.484375 
Q 5.515625 14.40625 5.515625 27.296875 
Q 5.515625 40.1875 11.734375 48.09375 
Q 17.96875 56 27.875 56 
Q 33.9375 56 38.25 53.625 
Q 42.578125 51.265625 45.40625 46.390625 
z
M 14.796875 27.296875 
Q 14.796875 17.390625 18.875 11.75 
Q 22.953125 6.109375 30.078125 6.109375 
Q 37.203125 6.109375 41.296875 11.75 
Q 45.40625 17.390625 45.40625 27.296875 
Q 45.40625 37.203125 41.296875 42.84375 
Q 37.203125 48.484375 30.078125 48.484375 
Q 22.953125 48.484375 18.875 42.84375 
Q 14.796875 37.203125 14.796875 27.296875 
z
" id="DejaVuSans-100"/>
       <path d="M 9.421875 75.984375 
L 18.40625 75.984375 
L 18.40625 0 
L 9.421875 0 
z
" id="DejaVuSans-108"/>
       <path d="M 9.421875 54.6875 
L 18.40625 54.6875 
L 18.40625 0 
L 9.421875 0 
z
M 9.421875 75.984375 
L 18.40625 75.984375 
L 18.40625 64.59375 
L 9.421875 64.59375 
z
" id="DejaVuSans-105"/>
       <path d="M 45.40625 27.984375 
Q 45.40625 37.75 41.375 43.109375 
Q 37.359375 48.484375 30.078125 48.484375 
Q 22.859375 48.484375 18.828125 43.109375 
Q 14.796875 37.75 14.796875 27.984375 
Q 14.796875 18.265625 18.828125 12.890625 
Q 22.859375 7.515625 30.078125 7.515625 
Q 37.359375 7.515625 41.375 12.890625 
Q 45.40625 18.265625 45.40625 27.984375 
z
M 54.390625 6.78125 
Q 54.390625 -7.171875 48.1875 -13.984375 
Q 42 -20.796875 29.203125 -20.796875 
Q 24.46875 -20.796875 20.265625 -20.09375 
Q 16.0625 -19.390625 12.109375 -17.921875 
L 12.109375 -9.1875 
Q 16.0625 -11.328125 19.921875 -12.34375 
Q 23.78125 -13.375 27.78125 -13.375 
Q 36.625 -13.375 41.015625 -8.765625 
Q 45.40625 -4.15625 45.40625 5.171875 
L 45.40625 9.625 
Q 42.625 4.78125 38.28125 2.390625 
Q 33.9375 0 27.875 0 
Q 17.828125 0 11.671875 7.65625 
Q 5.515625 15.328125 5.515625 27.984375 
Q 5.515625 40.671875 11.671875 48.328125 
Q 17.828125 56 27.875 56 
Q 33.9375 56 38.28125 53.609375 
Q 42.625 51.21875 45.40625 46.390625 
L 45.40625 54.6875 
L 54.390625 54.6875 
z
" id="DejaVuSans-103"/>
       <path d="M 2.984375 54.6875 
L 12.5 54.6875 
L 29.59375 8.796875 
L 46.6875 54.6875 
L 56.203125 54.6875 
L 35.6875 0 
L 23.484375 0 
z
" id="DejaVuSans-118"/>
      </defs>
      <use xlink:href="#DejaVuSans-70"/>
      <use x="50.269531" xlink:href="#DejaVuSans-114"/>
      <use x="89.132812" xlink:href="#DejaVuSans-101"/>
      <use x="150.65625" xlink:href="#DejaVuSans-113"/>
      <use x="214.132812" xlink:href="#DejaVuSans-117"/>
      <use x="277.511719" xlink:href="#DejaVuSans-101"/>
      <use x="339.035156" xlink:href="#DejaVuSans-110"/>
      <use x="402.414062" xlink:href="#DejaVuSans-99"/>
      <use x="457.394531" xlink:href="#DejaVuSans-121"/>
      <use x="516.574219" xlink:href="#DejaVuSans-32"/>
      <use x="548.361328" xlink:href="#DejaVuSans-111"/>
      <use x="609.542969" xlink:href="#DejaVuSans-102"/>
      <use x="644.748047" xlink:href="#DejaVuSans-32"/>
      <use x="676.535156" xlink:href="#DejaVuSans-83"/>
      <use x="740.011719" xlink:href="#DejaVuSans-78"/>
      <use x="814.816406" xlink:href="#DejaVuSans-80"/>
      <use x="875.119141" xlink:href="#DejaVuSans-32"/>
      <use x="906.90625" xlink:href="#DejaVuSans-40"/>
      <use x="945.919922" xlink:href="#DejaVuSans-55"/>
      <use x="1009.542969" xlink:href="#DejaVuSans-32"/>
      <use x="1041.330078" xlink:href="#DejaVuSans-100"/>
      <use x="1104.806641" xlink:href="#DejaVuSans-97"/>
      <use x="1166.085938" xlink:href="#DejaVuSans-121"/>
      <use x="1225.265625" xlink:href="#DejaVuSans-32"/>
      <use x="1257.052734" xlink:href="#DejaVuSans-114"/>
      <use x="1295.916016" xlink:href="#DejaVuSans-111"/>
      <use x="1357.097656" xlink:href="#DejaVuSans-108"/>
      <use x="1384.880859" xlink:href="#DejaVuSans-108"/>
      <use x="1412.664062" xlink:href="#DejaVuSans-105"/>
      <use x="1440.447266" xlink:href="#DejaVuSans-110"/>
      <use x="1503.826172" xlink:href="#DejaVuSans-103"/>
      <use x="1567.302734" xlink:href="#DejaVuSans-32"/>
      <use x="1599.089844" xlink:href="#DejaVuSans-97"/>
      <use x="1660.369141" xlink:href="#DejaVuSans-118"/>
      <use x="1719.548828" xlink:href="#DejaVuSans-101"/>
      <use x="1781.072266" xlink:href="#DejaVuSans-114"/>
      <use x="1822.185547" xlink:href="#DejaVuSans-97"/>
      <use x="1883.464844" xlink:href="#DejaVuSans-103"/>
      <use x="1946.941406" xlink:href="#DejaVuSans-101"/>
     </g>
    </g>
   </g>
   <g id="line2d_13">
    <path clip-path="url(#p237ed373b2)" d="M 346.090909 615.6 
L 933.859009 615.6 
L 938.415351 600.699381 
L 942.971693 615.6 
L 970.309744 615.6 
L 974.866086 610.160002 
L 979.422428 615.6 
L 1243.690256 615.6 
L 1248.246598 605.603908 
L 1252.80294 615.6 
L 1275.584649 615.6 
L 1280.140991 607.422935 
L 1284.697333 615.6 
L 1321.148068 615.6 
L 1325.704409 609.965411 
L 1330.260751 615.6 
L 1339.373435 615.6 
L 1343.929777 609.406364 
L 1348.486119 615.6 
L 1353.042461 615.6 
L 1357.598802 607.566026 
L 1362.155144 615.6 
L 1371.267828 615.6 
L 1375.82417 612.347693 
L 1380.380512 615.6 
L 1389.493195 615.6 
L 1394.049537 611.965686 
L 1398.605879 615.6 
L 1412.274905 615.6 
L 1416.831247 612.359856 
L 1421.387588 612.906746 
L 1425.94393 615.6 
L 1435.056614 615.6 
L 1439.612956 613.501157 
L 1444.169298 615.6 
L 1457.838323 615.6 
L 1462.394665 613.359105 
L 1466.951007 613.29031 
L 1471.507349 615.6 
L 1476.063691 613.518932 
L 1480.620033 615.6 
L 1485.176375 613.76869 
L 1489.732716 614.149052 
L 1494.289058 615.6 
L 1498.8454 614.186661 
L 1503.401742 615.6 
L 1507.958084 615.6 
L 1512.514426 613.318615 
L 1517.070768 613.278264 
L 1521.627109 615.6 
L 1526.183451 613.176193 
L 1530.739793 613.013662 
L 1535.296135 615.6 
L 1539.852477 615.6 
L 1544.408819 612.982155 
L 1548.965161 615.6 
L 1553.521502 615.6 
L 1558.077844 611.568474 
L 1562.634186 610.783651 
L 1567.190528 610.92899 
L 1571.74687 610.55001 
L 1576.303212 610.335219 
L 1580.859554 610.658468 
L 1585.415895 610.228093 
L 1589.972237 615.6 
L 1594.528579 607.401788 
L 1599.084921 608.192469 
L 1603.641263 607.649208 
L 1608.197605 604.763 
L 1612.753947 599.607647 
L 1617.310289 598.979278 
L 1621.86663 600.579412 
L 1626.422972 594.698107 
L 1630.979314 592.242213 
L 1635.535656 615.6 
L 1640.091998 583.788385 
L 1644.64834 579.143912 
L 1649.204682 583.047377 
L 1653.761023 580.065359 
L 1658.317365 568.390778 
L 1662.873707 562.52998 
L 1667.430049 559.945086 
L 1671.986391 555.555162 
L 1676.542733 553.309137 
L 1681.099075 545.696623 
L 1685.655416 543.224888 
L 1690.211758 538.874738 
L 1694.7681 550.735908 
L 1699.324442 534.753128 
L 1703.880784 517.642856 
L 1708.437126 521.461255 
L 1712.993468 525.493795 
L 1717.549809 516.794281 
L 1722.106151 509.837441 
L 1726.662493 492.082231 
L 1731.218835 491.640568 
L 1735.775177 508.06992 
L 1740.331519 492.221963 
L 1744.887861 488.571825 
L 1749.444203 468.107829 
L 1754.000544 481.44736 
L 1758.556886 447.897744 
L 1763.113228 444.31156 
L 1767.66957 464.00925 
L 1772.225912 456.137393 
L 1776.782254 424.941646 
L 1781.338596 413.024263 
L 1785.894937 304.453957 
L 1790.451279 312.73412 
L 1795.007621 316.254818 
L 1799.563963 276.89124 
L 1804.120305 273.490324 
L 1808.676647 256.754573 
L 1813.232989 218.808156 
L 1817.78933 206.419526 
L 1822.345672 159.050141 
L 1826.902014 137.89787 
L 1831.458356 144.589443 
L 1836.014698 112.969203 
L 1840.57104 111.6 
L 1845.127382 119.37071 
L 1849.683723 172.170918 
L 1854.240065 240.723623 
L 1858.796407 239.591685 
L 1858.796407 239.591685 
" style="fill:none;stroke:#1f77b4;stroke-linecap:square;stroke-width:2;"/>
   </g>
   <g id="line2d_14">
    <path clip-path="url(#p237ed373b2)" d="M 346.090909 615.6 
L 1526.183451 615.6 
L 1530.739793 613.926487 
L 1535.296135 615.6 
L 1553.521502 615.6 
L 1558.077844 612.545814 
L 1567.190528 611.396091 
L 1571.74687 611.0091 
L 1576.303212 610.907478 
L 1580.859554 611.207527 
L 1585.415895 615.6 
L 1589.972237 615.6 
L 1594.528579 605.79779 
L 1599.084921 607.698634 
L 1603.641263 607.472523 
L 1608.197605 604.62226 
L 1612.753947 600.107408 
L 1617.310289 599.956967 
L 1621.86663 601.66003 
L 1626.422972 595.722709 
L 1630.979314 593.635108 
L 1635.535656 615.6 
L 1640.091998 585.011908 
L 1644.64834 580.643688 
L 1649.204682 584.218334 
L 1653.761023 581.110496 
L 1658.317365 569.183259 
L 1662.873707 563.648314 
L 1667.430049 560.953659 
L 1671.986391 556.663372 
L 1676.542733 554.52188 
L 1681.099075 547.466328 
L 1685.655416 544.852515 
L 1690.211758 541.016495 
L 1694.7681 552.585103 
L 1699.324442 537.378026 
L 1703.880784 522.666299 
L 1712.993468 529.427003 
L 1717.549809 521.244989 
L 1722.106151 514.379391 
L 1726.662493 497.285361 
L 1731.218835 496.520861 
L 1735.775177 510.281336 
L 1740.331519 494.65906 
L 1744.887861 491.125156 
L 1749.444203 471.070841 
L 1754.000544 484.150688 
L 1758.556886 450.782944 
L 1763.113228 447.108106 
L 1767.66957 466.600545 
L 1772.225912 458.907979 
L 1776.782254 428.554705 
L 1781.338596 417.217293 
L 1785.894937 312.676435 
L 1790.451279 321.64194 
L 1795.007621 325.455328 
L 1799.563963 286.708885 
L 1804.120305 283.417614 
L 1808.676647 267.982718 
L 1813.232989 230.555283 
L 1817.78933 218.649079 
L 1822.345672 172.810145 
L 1826.902014 152.519516 
L 1831.458356 159.914745 
L 1836.014698 130.746461 
L 1840.57104 129.892264 
L 1845.127382 139.798135 
L 1849.683723 192.837319 
L 1854.240065 261.283571 
L 1858.796407 260.788232 
L 1858.796407 260.788232 
" style="fill:none;stroke:#ff7f0e;stroke-linecap:square;stroke-width:2;"/>
   </g>
   <g id="line2d_15">
    <path clip-path="url(#p237ed373b2)" d="M 346.090909 615.6 
L 1462.394665 615.6 
L 1466.951007 613.521279 
L 1471.507349 615.6 
L 1476.063691 613.727039 
L 1480.620033 615.6 
L 1485.176375 613.76869 
L 1489.732716 615.6 
L 1494.289058 615.6 
L 1498.8454 614.029624 
L 1503.401742 615.6 
L 1507.958084 615.6 
L 1512.514426 613.774892 
L 1517.070768 613.587829 
L 1521.627109 615.6 
L 1526.183451 613.522451 
L 1530.739793 613.470075 
L 1535.296135 615.6 
L 1553.521502 615.6 
L 1558.077844 612.057144 
L 1562.634186 611.605954 
L 1567.190528 610.92899 
L 1571.74687 610.779555 
L 1585.415895 610.824972 
L 1589.972237 615.6 
L 1594.528579 608.114676 
L 1599.084921 608.027857 
L 1603.641263 607.649208 
L 1608.197605 604.48152 
L 1612.753947 599.482707 
L 1617.310289 599.2237 
L 1621.86663 600.795536 
L 1626.422972 594.903027 
L 1630.979314 592.56365 
L 1635.535656 594.009887 
L 1640.091998 587.866797 
L 1644.64834 585.37375 
L 1649.204682 583.867047 
L 1653.761023 580.181485 
L 1658.317365 577.22128 
L 1662.873707 564.461647 
L 1671.986391 555.454415 
L 1676.542733 553.419386 
L 1681.099075 545.807229 
L 1685.655416 543.441905 
L 1690.211758 539.504667 
L 1694.7681 551.589383 
L 1699.324442 535.453101 
L 1703.880784 518.539899 
L 1708.437126 521.798669 
L 1712.993468 526.030142 
L 1717.549809 517.239352 
L 1722.106151 511.567708 
L 1726.662493 494.118238 
L 1731.218835 493.8367 
L 1735.775177 510.83419 
L 1740.331519 495.572972 
L 1744.887861 491.444322 
L 1749.444203 471.729288 
L 1754.000544 483.13694 
L 1758.556886 449.700994 
L 1763.113228 446.059402 
L 1767.66957 465.628809 
L 1772.225912 457.98445 
L 1776.782254 427.442995 
L 1781.338596 414.858714 
L 1785.894937 306.135828 
L 1790.451279 313.761946 
L 1795.007621 317.569177 
L 1799.563963 278.316382 
L 1804.120305 275.475782 
L 1808.676647 259.18228 
L 1813.232989 222.868891 
L 1817.78933 212.194593 
L 1822.345672 166.812194 
L 1826.902014 146.41174 
L 1831.458356 153.125055 
L 1836.014698 121.22293 
L 1840.57104 120.024069 
L 1845.127382 126.284608 
L 1849.683723 178.011423 
L 1854.240065 243.46495 
L 1858.796407 240.513274 
L 1858.796407 240.513274 
" style="fill:none;stroke:#2ca02c;stroke-linecap:square;stroke-width:2;"/>
   </g>
   <g id="line2d_16">
    <path clip-path="url(#p237ed373b2)" d="M 346.090909 615.6 
L 1412.274905 615.6 
L 1416.831247 613.169892 
L 1421.387588 613.58006 
L 1425.94393 613.703135 
L 1430.500272 613.44041 
L 1435.056614 614.029088 
L 1439.612956 613.501157 
L 1444.169298 615.6 
L 1448.72564 613.361058 
L 1453.281981 615.6 
L 1457.838323 613.39162 
L 1462.394665 613.155387 
L 1466.951007 612.597404 
L 1471.507349 611.45751 
L 1476.063691 615.6 
L 1480.620033 610.27811 
L 1485.176375 611.754249 
L 1489.732716 612.375672 
L 1494.289058 611.845802 
L 1498.8454 610.731833 
L 1503.401742 610.673033 
L 1507.958084 611.274401 
L 1512.514426 611.493508 
L 1521.627109 609.789073 
L 1526.183451 610.059869 
L 1530.739793 610.883737 
L 1535.296135 610.327037 
L 1539.852477 610.16474 
L 1544.408819 610.518301 
L 1548.965161 609.54622 
L 1553.521502 609.708995 
L 1558.077844 608.147786 
L 1562.634186 607.846852 
L 1571.74687 605.500021 
L 1576.303212 604.841535 
L 1580.859554 604.838442 
L 1585.415895 603.543054 
L 1589.972237 602.502552 
L 1594.528579 598.134244 
L 1599.084921 598.974208 
L 1603.641263 597.401519 
L 1608.197605 594.348221 
L 1612.753947 590.98677 
L 1617.310289 591.279972 
L 1621.86663 593.987644 
L 1626.422972 587.218508 
L 1630.979314 584.206277 
L 1635.535656 585.682273 
L 1640.091998 580.525655 
L 1644.64834 577.067299 
L 1649.204682 574.733577 
L 1653.761023 571.355888 
L 1658.317365 570.202163 
L 1662.873707 558.361645 
L 1667.430049 555.452349 
L 1671.986391 550.820082 
L 1676.542733 548.678666 
L 1681.099075 541.382965 
L 1685.655416 538.124993 
L 1690.211758 533.457355 
L 1694.7681 544.050354 
L 1699.324442 526.528446 
L 1703.880784 509.569465 
L 1708.437126 512.351053 
L 1712.993468 515.481995 
L 1717.549809 505.444976 
L 1722.106151 497.725573 
L 1726.662493 480.77108 
L 1731.218835 478.219763 
L 1735.775177 493.419292 
L 1740.331519 477.599381 
L 1744.887861 475.805175 
L 1749.444203 457.572673 
L 1754.000544 470.296133 
L 1758.556886 438.881494 
L 1763.113228 438.019332 
L 1767.66957 459.150572 
L 1772.225912 454.290336 
L 1776.782254 422.996153 
L 1781.338596 409.093298 
L 1785.894937 302.024589 
L 1790.451279 310.849774 
L 1795.007621 314.61187 
L 1799.563963 275.782796 
L 1804.120305 273.032142 
L 1808.676647 256.602842 
L 1813.232989 218.953182 
L 1817.78933 207.268801 
L 1822.345672 159.226551 
L 1826.902014 138.082954 
L 1831.458356 144.589443 
L 1836.014698 112.334301 
L 1840.57104 111.6 
L 1845.127382 120.627783 
L 1849.683723 173.069458 
L 1854.240065 242.779618 
L 1858.796407 239.591685 
L 1863.352749 255.312998 
L 1867.909091 312.091117 
L 1867.909091 312.091117 
" style="fill:none;stroke:#d62728;stroke-linecap:square;stroke-width:2;"/>
   </g>
   <g id="line2d_17">
    <path clip-path="url(#p237ed373b2)" d="M 346.090909 615.6 
L 1526.183451 615.6 
L 1530.739793 613.77435 
L 1535.296135 615.6 
L 1553.521502 615.6 
L 1558.077844 612.423646 
L 1562.634186 611.840898 
L 1571.74687 611.0091 
L 1576.303212 611.02193 
L 1580.859554 611.317339 
L 1585.415895 615.6 
L 1589.972237 615.6 
L 1594.528579 605.976012 
L 1599.084921 607.863245 
L 1603.641263 607.649208 
L 1608.197605 604.763 
L 1612.753947 600.107408 
L 1617.310289 599.712545 
L 1621.86663 601.443907 
L 1626.422972 595.517789 
L 1630.979314 593.099379 
L 1635.535656 615.6 
L 1640.091998 584.502107 
L 1644.64834 580.066851 
L 1649.204682 583.749951 
L 1653.761023 580.645991 
L 1658.317365 568.730412 
L 1662.873707 562.83498 
L 1667.430049 560.31184 
L 1671.986391 555.958147 
L 1676.542733 553.750134 
L 1681.099075 546.139049 
L 1685.655416 543.441905 
L 1690.211758 539.378681 
L 1694.7681 551.304891 
L 1699.324442 535.278108 
L 1703.880784 518.181082 
L 1708.437126 521.798669 
L 1712.993468 525.851359 
L 1717.549809 517.016817 
L 1722.106151 510.053724 
L 1726.662493 492.308454 
L 1731.218835 491.884583 
L 1735.775177 508.346347 
L 1740.331519 492.5266 
L 1744.887861 488.890992 
L 1749.444203 469.753947 
L 1754.000544 483.13694 
L 1758.556886 450.422294 
L 1763.113228 446.758538 
L 1767.66957 466.276633 
L 1772.225912 458.600136 
L 1776.782254 427.442995 
L 1781.338596 414.858714 
L 1785.894937 305.762079 
L 1790.451279 313.590641 
L 1795.007621 317.240587 
L 1799.563963 277.841335 
L 1804.120305 274.406689 
L 1808.676647 257.513232 
L 1813.232989 219.243235 
L 1817.78933 206.929091 
L 1822.345672 159.579372 
L 1826.902014 138.638206 
L 1831.458356 145.559399 
L 1836.014698 113.81574 
L 1840.57104 112.562751 
L 1845.127382 120.627783 
L 1849.683723 173.518727 
L 1854.240065 242.779618 
L 1858.796407 240.513274 
L 1858.796407 240.513274 
" style="fill:none;stroke:#9467bd;stroke-linecap:square;stroke-width:2;"/>
   </g>
   <g id="line2d_18">
    <path clip-path="url(#p237ed373b2)" d="M 346.090909 615.6 
L 1457.838323 615.6 
L 1462.394665 613.562823 
L 1466.951007 613.29031 
L 1471.507349 615.6 
L 1494.289058 615.6 
L 1498.8454 614.029624 
L 1503.401742 614.060323 
L 1507.958084 615.6 
L 1512.514426 613.926985 
L 1517.070768 615.6 
L 1526.183451 615.6 
L 1530.739793 613.77435 
L 1535.296135 615.6 
L 1544.408819 615.6 
L 1548.965161 613.68828 
L 1553.521502 614.019486 
L 1558.077844 611.934977 
L 1567.190528 610.461889 
L 1571.74687 610.205693 
L 1580.859554 610.329033 
L 1585.415895 609.869966 
L 1589.972237 615.6 
L 1594.528579 607.401788 
L 1599.084921 608.027857 
L 1603.641263 608.002576 
L 1608.197605 604.763 
L 1612.753947 599.732588 
L 1617.310289 599.345911 
L 1621.86663 600.903598 
L 1626.422972 594.800567 
L 1630.979314 592.135067 
L 1635.535656 615.6 
L 1640.091998 583.380543 
L 1644.64834 578.682442 
L 1649.204682 582.344802 
L 1653.761023 579.368601 
L 1658.317365 567.032239 
L 1662.873707 561.208313 
L 1667.430049 558.294693 
L 1671.986391 553.741727 
L 1676.542733 551.655397 
L 1681.099075 543.81631 
L 1685.655416 540.620686 
L 1690.211758 536.606997 
L 1694.7681 548.459975 
L 1699.324442 532.128229 
L 1703.880784 515.131134 
L 1708.437126 518.930643 
L 1712.993468 523.348409 
L 1717.549809 514.791463 
L 1722.106151 508.107174 
L 1726.662493 489.820001 
L 1731.218835 490.66451 
L 1735.775177 507.240639 
L 1740.331519 491.308052 
L 1744.887861 487.29516 
L 1749.444203 467.449381 
L 1754.000544 480.771528 
L 1758.556886 448.979694 
L 1763.113228 445.010697 
L 1767.66957 464.333162 
L 1772.225912 456.445236 
L 1776.782254 425.775429 
L 1781.338596 413.810456 
L 1785.894937 304.453957 
L 1790.451279 312.220207 
L 1795.007621 316.090523 
L 1799.563963 276.416193 
L 1804.120305 273.184869 
L 1808.676647 256.147647 
L 1813.232989 217.937998 
L 1817.78933 205.740106 
L 1822.345672 158.3445 
L 1826.902014 137.342618 
L 1831.458356 144.783434 
L 1836.014698 112.969203 
L 1840.57104 112.081375 
L 1845.127382 120.313515 
L 1849.683723 173.518727 
L 1854.240065 243.46495 
L 1858.796407 241.434863 
L 1858.796407 241.434863 
" style="fill:none;stroke:#8c564b;stroke-linecap:square;stroke-width:2;"/>
   </g>
   <g id="line2d_19">
    <path clip-path="url(#p237ed373b2)" d="M 346.090909 615.6 
L 728.823625 615.6 
L 733.379967 613.649742 
L 737.936309 615.6 
L 742.492651 613.171573 
L 747.048993 615.6 
L 778.943386 615.6 
L 783.499728 612.305115 
L 788.05607 615.6 
L 792.612412 615.6 
L 797.168753 612.072402 
L 801.725095 611.825307 
L 806.281437 615.6 
L 829.063146 615.6 
L 833.619488 610.379055 
L 838.17583 615.6 
L 956.640719 615.6 
L 961.19706 610.896806 
L 965.753402 615.6 
L 970.309744 615.6 
L 974.866086 611.714287 
L 979.422428 615.6 
L 988.535112 615.6 
L 993.091453 610.696761 
L 997.647795 615.6 
L 1002.204137 615.6 
L 1006.760479 609.104764 
L 1011.316821 615.6 
L 1015.873163 606.917345 
L 1020.429505 615.6 
L 1043.211214 615.6 
L 1047.767556 599.505066 
L 1052.323898 615.6 
L 1107 615.6 
L 1111.556342 588.925631 
L 1116.112684 615.6 
L 1412.274905 615.6 
L 1416.831247 612.359856 
L 1421.387588 612.682308 
L 1425.94393 615.6 
L 1435.056614 615.6 
L 1439.612956 613.15135 
L 1444.169298 615.6 
L 1457.838323 615.6 
L 1462.394665 612.544234 
L 1466.951007 612.597404 
L 1471.507349 612.378064 
L 1476.063691 615.6 
L 1480.620033 615.6 
L 1485.176375 613.219297 
L 1489.732716 613.34297 
L 1494.289058 615.6 
L 1498.8454 613.558511 
L 1503.401742 615.6 
L 1507.958084 615.6 
L 1512.514426 613.6228 
L 1517.070768 613.742612 
L 1521.627109 615.6 
L 1526.183451 613.349322 
L 1535.296135 613.273693 
L 1539.852477 615.6 
L 1553.521502 615.6 
L 1558.077844 612.179311 
L 1562.634186 611.488482 
L 1571.74687 610.664783 
L 1576.303212 610.678575 
L 1580.859554 611.097715 
L 1585.415895 610.705596 
L 1589.972237 615.6 
L 1594.528579 607.758232 
L 1599.084921 608.192469 
L 1603.641263 608.17926 
L 1608.197605 604.90374 
L 1612.753947 599.857528 
L 1617.310289 599.590334 
L 1621.86663 601.227783 
L 1626.422972 595.312868 
L 1630.979314 592.885088 
L 1635.535656 615.6 
L 1640.091998 584.400147 
L 1644.64834 580.066851 
L 1649.204682 583.749951 
L 1653.761023 580.529864 
L 1658.317365 568.503989 
L 1662.873707 562.631647 
L 1667.430049 560.128463 
L 1671.986391 555.655908 
L 1676.542733 553.419386 
L 1681.099075 545.807229 
L 1685.655416 543.224888 
L 1690.211758 539.12671 
L 1694.7681 551.020399 
L 1699.324442 535.453101 
L 1703.880784 518.539899 
L 1708.437126 521.798669 
L 1712.993468 525.851359 
L 1717.549809 517.239352 
L 1722.106151 510.486291 
L 1726.662493 492.7609 
L 1731.218835 491.884583 
L 1735.775177 508.06992 
L 1740.331519 492.831237 
L 1744.887861 489.210158 
L 1749.444203 469.095499 
L 1754.000544 482.123192 
L 1758.556886 449.340344 
L 1763.113228 445.360265 
L 1767.66957 464.980985 
L 1772.225912 457.368765 
L 1776.782254 426.331284 
L 1781.338596 414.334585 
L 1785.894937 306.135828 
L 1790.451279 313.93325 
L 1795.007621 317.733471 
L 1799.563963 278.158033 
L 1804.120305 274.559417 
L 1808.676647 257.664963 
L 1813.232989 219.243235 
L 1817.78933 206.249671 
L 1822.345672 158.873731 
L 1826.902014 137.89787 
L 1831.458356 144.977425 
L 1836.014698 113.180837 
L 1840.57104 111.840688 
L 1845.127382 119.999246 
L 1849.683723 173.069458 
L 1854.240065 242.094287 
L 1858.796407 239.591685 
L 1858.796407 239.591685 
" style="fill:none;stroke:#e377c2;stroke-linecap:square;stroke-width:2;"/>
   </g>
   <g id="line2d_20">
    <path clip-path="url(#p237ed373b2)" d="M 346.090909 615.6 
L 1526.183451 615.6 
L 1530.739793 613.77435 
L 1535.296135 615.6 
L 1553.521502 615.6 
L 1558.077844 612.423646 
L 1562.634186 611.840898 
L 1571.74687 611.0091 
L 1576.303212 610.907478 
L 1580.859554 611.207527 
L 1585.415895 615.6 
L 1589.972237 615.6 
L 1594.528579 605.79779 
L 1599.084921 607.698634 
L 1603.641263 607.472523 
L 1608.197605 604.62226 
L 1612.753947 599.982468 
L 1617.310289 599.712545 
L 1621.86663 601.443907 
L 1626.422972 595.517789 
L 1630.979314 592.992234 
L 1635.535656 615.6 
L 1640.091998 584.400147 
L 1644.64834 579.951483 
L 1649.204682 583.632856 
L 1653.761023 580.529864 
L 1658.317365 568.617201 
L 1662.873707 562.83498 
L 1667.430049 560.403528 
L 1671.986391 556.058894 
L 1676.542733 553.860384 
L 1681.099075 546.360262 
L 1685.655416 543.658922 
L 1690.211758 539.630652 
L 1694.7681 551.447137 
L 1699.324442 535.453101 
L 1703.880784 518.360491 
L 1708.437126 521.967377 
L 1712.993468 525.851359 
L 1717.549809 517.239352 
L 1722.106151 510.486291 
L 1726.662493 492.7609 
L 1731.218835 492.372612 
L 1735.775177 508.899201 
L 1740.331519 493.135875 
L 1744.887861 489.529324 
L 1749.444203 470.08317 
L 1754.000544 483.13694 
L 1758.556886 450.422294 
L 1763.113228 446.758538 
L 1767.66957 466.276633 
L 1772.225912 458.600136 
L 1776.782254 427.720923 
L 1781.338596 415.120778 
L 1785.894937 305.948953 
L 1790.451279 313.761946 
L 1795.007621 317.404882 
L 1799.563963 277.999684 
L 1804.120305 274.559417 
L 1808.676647 257.513232 
L 1813.232989 219.243235 
L 1817.78933 206.929091 
L 1822.345672 159.402962 
L 1826.902014 138.453122 
L 1831.458356 145.171417 
L 1836.014698 113.392471 
L 1840.57104 112.081375 
L 1845.127382 119.999246 
L 1849.683723 172.620188 
L 1854.240065 242.094287 
L 1858.796407 239.591685 
L 1858.796407 239.591685 
" style="fill:none;stroke:#7f7f7f;stroke-linecap:square;stroke-width:2;"/>
   </g>
   <g id="line2d_21">
    <path clip-path="url(#p237ed373b2)" d="M 346.090909 615.6 
L 1526.183451 615.6 
L 1530.739793 613.77435 
L 1535.296135 615.6 
L 1553.521502 615.6 
L 1558.077844 612.423646 
L 1562.634186 611.840898 
L 1571.74687 611.0091 
L 1576.303212 611.02193 
L 1580.859554 611.317339 
L 1585.415895 615.6 
L 1589.972237 615.6 
L 1594.528579 605.976012 
L 1599.084921 607.863245 
L 1603.641263 607.649208 
L 1608.197605 604.763 
L 1612.753947 600.107408 
L 1617.310289 599.712545 
L 1621.86663 601.443907 
L 1626.422972 595.517789 
L 1630.979314 593.099379 
L 1635.535656 615.6 
L 1640.091998 584.502107 
L 1644.64834 580.066851 
L 1649.204682 583.749951 
L 1653.761023 580.645991 
L 1658.317365 568.730412 
L 1662.873707 562.83498 
L 1667.430049 560.31184 
L 1671.986391 555.958147 
L 1676.542733 553.750134 
L 1681.099075 546.139049 
L 1685.655416 543.441905 
L 1690.211758 539.378681 
L 1694.7681 551.304891 
L 1699.324442 535.278108 
L 1703.880784 518.181082 
L 1708.437126 521.798669 
L 1712.993468 525.851359 
L 1717.549809 517.016817 
L 1722.106151 510.053724 
L 1726.662493 492.308454 
L 1731.218835 491.884583 
L 1735.775177 508.346347 
L 1740.331519 492.5266 
L 1744.887861 488.890992 
L 1749.444203 469.753947 
L 1754.000544 483.13694 
L 1758.556886 450.422294 
L 1763.113228 446.758538 
L 1767.66957 466.276633 
L 1772.225912 458.600136 
L 1776.782254 427.442995 
L 1781.338596 414.596649 
L 1785.894937 305.201455 
L 1790.451279 313.076729 
L 1795.007621 316.583408 
L 1799.563963 277.049589 
L 1804.120305 273.490324 
L 1808.676647 256.754573 
L 1813.232989 218.66313 
L 1817.78933 206.419526 
L 1822.345672 159.050141 
L 1826.902014 138.082954 
L 1831.458356 144.783434 
L 1836.014698 113.180837 
L 1840.57104 111.6 
L 1845.127382 119.37071 
L 1849.683723 172.170918 
L 1854.240065 240.723623 
L 1858.796407 238.670096 
L 1858.796407 238.670096 
" style="fill:none;stroke:#bcbd22;stroke-linecap:square;stroke-width:2;"/>
   </g>
   <g id="line2d_22">
    <path clip-path="url(#p237ed373b2)" d="M 346.090909 615.6 
L 605.802395 615.6 
L 610.358737 613.970351 
L 619.471421 614.171133 
L 624.027763 615.6 
L 628.584105 614.306048 
L 633.140446 615.6 
L 637.696788 614.140434 
L 651.365814 614.142253 
L 655.922156 615.6 
L 660.478498 615.6 
L 665.034839 614.091235 
L 669.591181 614.064364 
L 674.147523 615.6 
L 678.703865 613.606454 
L 683.260207 613.789594 
L 687.816549 615.6 
L 692.372891 613.617434 
L 696.929232 615.6 
L 701.485574 613.341263 
L 706.041916 615.6 
L 715.1546 615.6 
L 719.710942 613.122658 
L 724.267284 615.6 
L 728.823625 615.6 
L 733.379967 612.813917 
L 737.936309 615.6 
L 792.612412 615.6 
L 797.168753 610.308603 
L 801.725095 610.881634 
L 806.281437 615.6 
L 815.394121 615.6 
L 819.950463 610.389387 
L 824.506805 608.523705 
L 829.063146 615.6 
L 833.619488 608.63874 
L 838.17583 615.6 
L 929.302667 615.6 
L 933.859009 600.393781 
L 938.415351 615.6 
L 961.19706 615.6 
L 965.753402 610.543776 
L 970.309744 615.6 
L 1107 615.6 
L 1111.556342 595.081255 
L 1116.112684 615.6 
L 1289.253674 615.6 
L 1293.810016 609.352987 
L 1298.366358 615.6 
L 1302.9227 615.6 
L 1307.479042 609.789073 
L 1312.035384 615.6 
L 1384.936854 615.6 
L 1389.493195 613.32253 
L 1394.049537 615.6 
L 1403.162221 615.6 
L 1407.718563 613.257013 
L 1412.274905 615.6 
L 1416.831247 613.709916 
L 1421.387588 614.028935 
L 1425.94393 615.6 
L 1430.500272 615.6 
L 1435.056614 614.37818 
L 1439.612956 615.6 
L 1453.281981 615.6 
L 1457.838323 614.194667 
L 1462.394665 613.76654 
L 1466.951007 613.521279 
L 1471.507349 615.6 
L 1480.620033 615.6 
L 1485.176375 613.951821 
L 1489.732716 613.82662 
L 1494.289058 615.6 
L 1498.8454 613.872586 
L 1503.401742 615.6 
L 1507.958084 613.837719 
L 1512.514426 613.470708 
L 1517.070768 615.6 
L 1521.627109 613.607682 
L 1526.183451 613.522451 
L 1530.739793 613.1658 
L 1535.296135 615.6 
L 1539.852477 615.6 
L 1544.408819 613.290137 
L 1548.965161 615.6 
L 1553.521502 613.444754 
L 1558.077844 611.812809 
L 1567.190528 610.69544 
L 1571.74687 610.320465 
L 1576.303212 610.678575 
L 1580.859554 610.878092 
L 1585.415895 615.6 
L 1589.972237 615.6 
L 1594.528579 604.90668 
L 1599.084921 607.204798 
L 1603.641263 607.295839 
L 1608.197605 604.48152 
L 1612.753947 599.607647 
L 1617.310289 599.2237 
L 1621.86663 601.011659 
L 1626.422972 595.005488 
L 1630.979314 592.349359 
L 1635.535656 615.6 
L 1640.091998 584.094266 
L 1644.64834 579.605381 
L 1649.204682 583.51576 
L 1653.761023 580.413738 
L 1658.317365 568.164355 
L 1662.873707 563.44498 
L 1667.430049 561.412101 
L 1671.986391 556.965611 
L 1676.542733 554.852628 
L 1681.099075 547.576935 
L 1685.655416 545.17804 
L 1690.211758 542.02438 
L 1694.7681 553.296332 
L 1703.880784 520.692804 
L 1708.437126 524.160573 
L 1712.993468 527.817963 
L 1717.549809 519.242171 
L 1722.106151 512.000275 
L 1726.662493 493.665792 
L 1731.218835 494.324729 
L 1735.775177 510.557763 
L 1740.331519 495.877609 
L 1744.887861 492.401821 
L 1749.444203 473.046182 
L 1754.000544 487.191932 
L 1758.556886 456.553344 
L 1763.113228 452.35163 
L 1767.66957 471.135311 
L 1772.225912 462.602093 
L 1776.782254 432.72362 
L 1781.338596 420.624129 
L 1785.894937 319.217043 
L 1790.451279 327.637588 
L 1795.007621 331.369942 
L 1799.563963 293.201199 
L 1804.120305 289.83217 
L 1808.676647 274.50718 
L 1813.232989 238.241675 
L 1817.78933 223.405017 
L 1822.345672 175.98553 
L 1826.902014 154.92561 
L 1831.458356 161.466675 
L 1836.014698 131.381363 
L 1840.57104 129.170201 
L 1845.127382 135.398382 
L 1849.683723 186.098276 
L 1854.240065 254.430255 
L 1858.796407 254.337109 
L 1858.796407 254.337109 
" style="fill:none;stroke:#17becf;stroke-linecap:square;stroke-width:2;"/>
   </g>
   <g id="line2d_23">
    <path clip-path="url(#p237ed373b2)" d="M 346.090909 615.6 
L 1129.781709 615.6 
L 1134.338051 605.528996 
L 1138.894393 605.338342 
L 1143.450735 615.6 
L 1148.007077 602.028618 
L 1152.563419 615.6 
L 1161.676102 615.6 
L 1166.232444 598.924342 
L 1170.788786 615.6 
L 1193.570495 615.6 
L 1198.126837 596.84752 
L 1202.683179 615.6 
L 1261.915623 615.6 
L 1266.471965 608.558147 
L 1271.028307 609.266688 
L 1275.584649 615.6 
L 1302.9227 615.6 
L 1307.479042 610.370165 
L 1312.035384 615.6 
L 1412.274905 615.6 
L 1416.831247 613.169892 
L 1421.387588 613.58006 
L 1425.94393 615.6 
L 1430.500272 613.680365 
L 1435.056614 613.330905 
L 1439.612956 613.326254 
L 1444.169298 615.6 
L 1453.281981 615.6 
L 1457.838323 612.990096 
L 1462.394665 612.747952 
L 1466.951007 612.366435 
L 1471.507349 615.6 
L 1480.620033 615.6 
L 1485.176375 612.669904 
L 1489.732716 615.6 
L 1494.289058 615.6 
L 1498.8454 612.93036 
L 1503.401742 613.752387 
L 1507.958084 615.6 
L 1512.514426 613.470708 
L 1517.070768 615.6 
L 1521.627109 615.6 
L 1526.183451 613.176193 
L 1530.739793 613.317937 
L 1535.296135 615.6 
L 1553.521502 615.6 
L 1558.077844 612.179311 
L 1567.190528 611.396091 
L 1571.74687 611.0091 
L 1580.859554 611.207527 
L 1585.415895 615.6 
L 1589.972237 615.6 
L 1594.528579 605.79779 
L 1599.084921 607.534022 
L 1603.641263 607.295839 
L 1608.197605 604.48152 
L 1612.753947 599.857528 
L 1617.310289 599.590334 
L 1621.86663 601.227783 
L 1626.422972 595.210408 
L 1630.979314 592.885088 
L 1635.535656 594.215508 
L 1640.091998 588.070718 
L 1644.64834 585.719852 
L 1649.204682 584.218334 
L 1653.761023 580.645991 
L 1658.317365 577.900549 
L 1662.873707 566.189981 
L 1667.430049 561.778855 
L 1671.986391 557.570089 
L 1676.542733 555.514123 
L 1681.099075 548.240575 
L 1685.655416 545.720582 
L 1690.211758 542.150365 
L 1694.7681 553.011841 
L 1703.880784 520.333986 
L 1708.437126 523.823159 
L 1712.993468 527.460399 
L 1717.549809 519.019635 
L 1722.106151 511.783991 
L 1726.662493 494.118238 
L 1731.218835 494.812758 
L 1735.775177 511.110617 
L 1740.331519 496.182246 
L 1744.887861 492.720987 
L 1749.444203 473.70463 
L 1754.000544 488.20568 
L 1758.556886 456.913994 
L 1763.113228 452.701198 
L 1767.66957 471.135311 
L 1772.225912 462.909936 
L 1776.782254 433.001547 
L 1781.338596 420.886193 
L 1785.894937 319.403917 
L 1790.451279 327.637588 
L 1795.007621 331.698532 
L 1799.563963 293.517897 
L 1804.120305 289.984898 
L 1808.676647 274.658912 
L 1813.232989 238.386701 
L 1817.78933 223.405017 
L 1822.345672 176.338351 
L 1826.902014 154.92561 
L 1831.458356 161.854657 
L 1836.014698 132.016265 
L 1840.57104 129.892264 
L 1845.127382 136.026918 
L 1849.683723 187.446084 
L 1854.240065 254.430255 
L 1858.796407 254.337109 
L 1858.796407 254.337109 
" style="fill:none;stroke:#1f77b4;stroke-linecap:square;stroke-width:2;"/>
   </g>
   <g id="line2d_24">
    <path clip-path="url(#p237ed373b2)" d="M 346.090909 615.6 
L 1526.183451 615.6 
L 1530.739793 613.77435 
L 1535.296135 615.6 
L 1553.521502 615.6 
L 1558.077844 612.423646 
L 1562.634186 611.840898 
L 1571.74687 611.0091 
L 1576.303212 610.907478 
L 1580.859554 611.207527 
L 1585.415895 615.6 
L 1589.972237 615.6 
L 1594.528579 605.79779 
L 1599.084921 607.698634 
L 1603.641263 607.472523 
L 1608.197605 604.62226 
L 1612.753947 599.982468 
L 1617.310289 599.712545 
L 1621.86663 601.443907 
L 1626.422972 595.517789 
L 1630.979314 593.099379 
L 1635.535656 615.6 
L 1640.091998 584.502107 
L 1644.64834 580.066851 
L 1649.204682 583.749951 
L 1653.761023 580.645991 
L 1658.317365 568.956836 
L 1662.873707 564.156647 
L 1667.430049 561.962232 
L 1671.986391 557.771582 
L 1676.542733 555.734622 
L 1681.099075 548.461788 
L 1685.655416 546.046107 
L 1690.211758 542.150365 
L 1694.7681 553.296332 
L 1703.880784 520.513395 
L 1708.437126 523.991866 
L 1712.993468 527.639181 
L 1717.549809 518.574565 
L 1722.106151 511.783991 
L 1726.662493 493.665792 
L 1731.218835 494.324729 
L 1735.775177 510.557763 
L 1740.331519 495.572972 
L 1744.887861 492.082654 
L 1749.444203 473.375406 
L 1754.000544 487.529848 
L 1758.556886 456.913994 
L 1763.113228 452.701198 
L 1767.66957 471.135311 
L 1772.225912 462.909936 
L 1776.782254 433.001547 
L 1781.338596 420.624129 
L 1785.894937 318.656419 
L 1790.451279 326.781067 
L 1795.007621 330.712763 
L 1799.563963 292.567802 
L 1804.120305 289.22126 
L 1808.676647 273.900253 
L 1813.232989 237.66157 
L 1817.78933 223.065307 
L 1822.345672 175.632709 
L 1826.902014 154.370357 
L 1831.458356 161.078692 
L 1836.014698 130.958095 
L 1840.57104 128.688825 
L 1845.127382 134.769846 
L 1849.683723 185.649006 
L 1854.240065 254.430255 
L 1858.796407 254.337109 
L 1858.796407 254.337109 
" style="fill:none;stroke:#ff7f0e;stroke-linecap:square;stroke-width:2;"/>
   </g>
   <g id="line2d_25">
    <path clip-path="url(#p237ed373b2)" d="M 346.090909 615.6 
L 660.478498 615.6 
L 665.034839 614.091235 
L 669.591181 613.872409 
L 674.147523 615.6 
L 678.703865 613.407099 
L 683.260207 613.186125 
L 687.816549 615.6 
L 692.372891 612.956578 
L 696.929232 615.6 
L 1412.274905 615.6 
L 1416.831247 612.359856 
L 1421.387588 612.906746 
L 1425.94393 615.6 
L 1457.838323 615.6 
L 1462.394665 613.155387 
L 1466.951007 613.059341 
L 1471.507349 615.6 
L 1494.289058 615.6 
L 1498.8454 614.186661 
L 1503.401742 615.6 
L 1507.958084 615.6 
L 1512.514426 614.079077 
L 1517.070768 615.6 
L 1526.183451 615.6 
L 1530.739793 613.77435 
L 1535.296135 615.6 
L 1553.521502 615.6 
L 1558.077844 612.423646 
L 1562.634186 611.840898 
L 1571.74687 611.0091 
L 1576.303212 611.02193 
L 1580.859554 611.317339 
L 1585.415895 615.6 
L 1589.972237 615.6 
L 1594.528579 605.976012 
L 1599.084921 607.863245 
L 1603.641263 607.649208 
L 1608.197605 604.763 
L 1612.753947 600.107408 
L 1617.310289 599.712545 
L 1621.86663 601.443907 
L 1626.422972 595.517789 
L 1630.979314 593.099379 
L 1635.535656 615.6 
L 1640.091998 584.502107 
L 1644.64834 580.066851 
L 1649.204682 583.749951 
L 1653.761023 580.645991 
L 1658.317365 569.29647 
L 1662.873707 563.343314 
L 1667.430049 560.770282 
L 1671.986391 556.461879 
L 1676.542733 554.301381 
L 1681.099075 546.692082 
L 1685.655416 543.984447 
L 1690.211758 539.12671 
L 1694.7681 551.020399 
L 1699.324442 534.928121 
L 1703.880784 517.822265 
L 1708.437126 521.461255 
L 1712.993468 525.672577 
L 1717.549809 516.794281 
L 1722.106151 510.270008 
L 1726.662493 492.534677 
L 1731.218835 492.128597 
L 1735.775177 508.622774 
L 1740.331519 493.440512 
L 1744.887861 489.529324 
L 1749.444203 470.412394 
L 1754.000544 483.812772 
L 1758.556886 452.946844 
L 1763.113228 448.855948 
L 1767.66957 467.896192 
L 1772.225912 459.523665 
L 1776.782254 428.276778 
L 1781.338596 415.382842 
L 1785.894937 306.696451 
L 1790.451279 313.590641 
L 1795.007621 317.404882 
L 1799.563963 278.158033 
L 1804.120305 274.712144 
L 1808.676647 258.27189 
L 1813.232989 220.258419 
L 1817.78933 207.60851 
L 1822.345672 160.814244 
L 1826.902014 139.933795 
L 1831.458356 146.917337 
L 1836.014698 115.297178 
L 1840.57104 113.525501 
L 1845.127382 121.570587 
L 1849.683723 174.866536 
L 1854.240065 242.779618 
L 1858.796407 240.513274 
L 1858.796407 240.513274 
" style="fill:none;stroke:#2ca02c;stroke-linecap:square;stroke-width:2;"/>
   </g>
   <g id="line2d_26">
    <path clip-path="url(#p237ed373b2)" d="M 346.090909 615.6 
L 1507.958084 615.6 
L 1512.514426 614.079077 
L 1517.070768 615.6 
L 1526.183451 615.6 
L 1530.739793 613.77435 
L 1535.296135 615.6 
L 1548.965161 615.6 
L 1553.521502 613.875803 
L 1558.077844 612.423646 
L 1571.74687 610.779555 
L 1576.303212 610.907478 
L 1580.859554 611.207527 
L 1585.415895 615.6 
L 1589.972237 615.6 
L 1594.528579 605.441346 
L 1599.084921 607.36941 
L 1603.641263 607.295839 
L 1608.197605 604.62226 
L 1612.753947 599.982468 
L 1617.310289 599.712545 
L 1621.86663 601.443907 
L 1626.422972 595.517789 
L 1630.979314 593.099379 
L 1635.535656 615.6 
L 1640.091998 584.502107 
L 1644.64834 580.066851 
L 1649.204682 583.749951 
L 1653.761023 580.645991 
L 1658.317365 569.409682 
L 1662.873707 563.851647 
L 1667.430049 561.687167 
L 1671.986391 557.368597 
L 1676.542733 555.293625 
L 1681.099075 547.687542 
L 1685.655416 544.961023 
L 1690.211758 540.386566 
L 1694.7681 552.01612 
L 1703.880784 518.360491 
L 1708.437126 521.967377 
L 1712.993468 526.030142 
L 1717.549809 517.461888 
L 1722.106151 510.702574 
L 1726.662493 492.7609 
L 1731.218835 492.372612 
L 1735.775177 508.899201 
L 1740.331519 493.440512 
L 1744.887861 489.848491 
L 1749.444203 469.753947 
L 1754.000544 482.799024 
L 1758.556886 453.668144 
L 1763.113228 449.904652 
L 1767.66957 469.515752 
L 1772.225912 461.370722 
L 1776.782254 430.500199 
L 1781.338596 418.003486 
L 1785.894937 308.191447 
L 1790.451279 314.275858 
L 1795.007621 317.733471 
L 1799.563963 278.316382 
L 1804.120305 274.712144 
L 1808.676647 257.513232 
L 1813.232989 219.533287 
L 1817.78933 207.098946 
L 1822.345672 159.579372 
L 1826.902014 138.823291 
L 1831.458356 145.947381 
L 1836.014698 114.662276 
L 1840.57104 113.525501 
L 1845.127382 121.570587 
L 1849.683723 174.866536 
L 1854.240065 244.835613 
L 1858.796407 243.278041 
L 1858.796407 243.278041 
" style="fill:none;stroke:#d62728;stroke-linecap:square;stroke-width:2;"/>
   </g>
   <g id="patch_3">
    <path d="M 270 640.8 
L 270 86.4 
" style="fill:none;stroke:#000000;stroke-linecap:square;stroke-linejoin:miter;stroke-width:0.8;"/>
   </g>
   <g id="patch_4">
    <path d="M 1944 640.8 
L 1944 86.4 
" style="fill:none;stroke:#000000;stroke-linecap:square;stroke-linejoin:miter;stroke-width:0.8;"/>
   </g>
   <g id="patch_5">
    <path d="M 270 640.8 
L 1944 640.8 
" style="fill:none;stroke:#000000;stroke-linecap:square;stroke-linejoin:miter;stroke-width:0.8;"/>
   </g>
   <g id="patch_6">
    <path d="M 270 86.4 
L 1944 86.4 
" style="fill:none;stroke:#000000;stroke-linecap:square;stroke-linejoin:miter;stroke-width:0.8;"/>
   </g>
   <g id="text_15">
    <!-- orf1ab:T1001I -->
    <g style="fill:#1f77b4;" transform="translate(1858.796407 239.591685)scale(0.2 -0.2)">
     <defs>
      <path d="M 48.6875 27.296875 
Q 48.6875 37.203125 44.609375 42.84375 
Q 40.53125 48.484375 33.40625 48.484375 
Q 26.265625 48.484375 22.1875 42.84375 
Q 18.109375 37.203125 18.109375 27.296875 
Q 18.109375 17.390625 22.1875 11.75 
Q 26.265625 6.109375 33.40625 6.109375 
Q 40.53125 6.109375 44.609375 11.75 
Q 48.6875 17.390625 48.6875 27.296875 
z
M 18.109375 46.390625 
Q 20.953125 51.265625 25.265625 53.625 
Q 29.59375 56 35.59375 56 
Q 45.5625 56 51.78125 48.09375 
Q 58.015625 40.1875 58.015625 27.296875 
Q 58.015625 14.40625 51.78125 6.484375 
Q 45.5625 -1.421875 35.59375 -1.421875 
Q 29.59375 -1.421875 25.265625 0.953125 
Q 20.953125 3.328125 18.109375 8.203125 
L 18.109375 0 
L 9.078125 0 
L 9.078125 75.984375 
L 18.109375 75.984375 
z
" id="DejaVuSans-98"/>
      <path d="M 11.71875 12.40625 
L 22.015625 12.40625 
L 22.015625 0 
L 11.71875 0 
z
M 11.71875 51.703125 
L 22.015625 51.703125 
L 22.015625 39.3125 
L 11.71875 39.3125 
z
" id="DejaVuSans-58"/>
      <path d="M -0.296875 72.90625 
L 61.375 72.90625 
L 61.375 64.59375 
L 35.5 64.59375 
L 35.5 0 
L 25.59375 0 
L 25.59375 64.59375 
L -0.296875 64.59375 
z
" id="DejaVuSans-84"/>
      <path d="M 9.8125 72.90625 
L 19.671875 72.90625 
L 19.671875 0 
L 9.8125 0 
z
" id="DejaVuSans-73"/>
     </defs>
     <use xlink:href="#DejaVuSans-111"/>
     <use x="61.181641" xlink:href="#DejaVuSans-114"/>
     <use x="102.294922" xlink:href="#DejaVuSans-102"/>
     <use x="137.5" xlink:href="#DejaVuSans-49"/>
     <use x="201.123047" xlink:href="#DejaVuSans-97"/>
     <use x="262.402344" xlink:href="#DejaVuSans-98"/>
     <use x="325.878906" xlink:href="#DejaVuSans-58"/>
     <use x="359.570312" xlink:href="#DejaVuSans-84"/>
     <use x="420.654297" xlink:href="#DejaVuSans-49"/>
     <use x="484.277344" xlink:href="#DejaVuSans-48"/>
     <use x="547.900391" xlink:href="#DejaVuSans-48"/>
     <use x="611.523438" xlink:href="#DejaVuSans-49"/>
     <use x="675.146484" xlink:href="#DejaVuSans-73"/>
    </g>
   </g>
   <g id="text_16">
    <!-- orf1ab:A1708D -->
    <g style="fill:#ff7f0e;" transform="translate(1858.796407 260.788232)scale(0.2 -0.2)">
     <defs>
      <path d="M 34.1875 63.1875 
L 20.796875 26.90625 
L 47.609375 26.90625 
z
M 28.609375 72.90625 
L 39.796875 72.90625 
L 67.578125 0 
L 57.328125 0 
L 50.6875 18.703125 
L 17.828125 18.703125 
L 11.1875 0 
L 0.78125 0 
z
" id="DejaVuSans-65"/>
      <path d="M 31.78125 34.625 
Q 24.75 34.625 20.71875 30.859375 
Q 16.703125 27.09375 16.703125 20.515625 
Q 16.703125 13.921875 20.71875 10.15625 
Q 24.75 6.390625 31.78125 6.390625 
Q 38.8125 6.390625 42.859375 10.171875 
Q 46.921875 13.96875 46.921875 20.515625 
Q 46.921875 27.09375 42.890625 30.859375 
Q 38.875 34.625 31.78125 34.625 
z
M 21.921875 38.8125 
Q 15.578125 40.375 12.03125 44.71875 
Q 8.5 49.078125 8.5 55.328125 
Q 8.5 64.0625 14.71875 69.140625 
Q 20.953125 74.21875 31.78125 74.21875 
Q 42.671875 74.21875 48.875 69.140625 
Q 55.078125 64.0625 55.078125 55.328125 
Q 55.078125 49.078125 51.53125 44.71875 
Q 48 40.375 41.703125 38.8125 
Q 48.828125 37.15625 52.796875 32.3125 
Q 56.78125 27.484375 56.78125 20.515625 
Q 56.78125 9.90625 50.3125 4.234375 
Q 43.84375 -1.421875 31.78125 -1.421875 
Q 19.734375 -1.421875 13.25 4.234375 
Q 6.78125 9.90625 6.78125 20.515625 
Q 6.78125 27.484375 10.78125 32.3125 
Q 14.796875 37.15625 21.921875 38.8125 
z
M 18.3125 54.390625 
Q 18.3125 48.734375 21.84375 45.5625 
Q 25.390625 42.390625 31.78125 42.390625 
Q 38.140625 42.390625 41.71875 45.5625 
Q 45.3125 48.734375 45.3125 54.390625 
Q 45.3125 60.0625 41.71875 63.234375 
Q 38.140625 66.40625 31.78125 66.40625 
Q 25.390625 66.40625 21.84375 63.234375 
Q 18.3125 60.0625 18.3125 54.390625 
z
" id="DejaVuSans-56"/>
     </defs>
     <use xlink:href="#DejaVuSans-111"/>
     <use x="61.181641" xlink:href="#DejaVuSans-114"/>
     <use x="102.294922" xlink:href="#DejaVuSans-102"/>
     <use x="137.5" xlink:href="#DejaVuSans-49"/>
     <use x="201.123047" xlink:href="#DejaVuSans-97"/>
     <use x="262.402344" xlink:href="#DejaVuSans-98"/>
     <use x="325.878906" xlink:href="#DejaVuSans-58"/>
     <use x="359.570312" xlink:href="#DejaVuSans-65"/>
     <use x="427.978516" xlink:href="#DejaVuSans-49"/>
     <use x="491.601562" xlink:href="#DejaVuSans-55"/>
     <use x="555.224609" xlink:href="#DejaVuSans-48"/>
     <use x="618.847656" xlink:href="#DejaVuSans-56"/>
     <use x="682.470703" xlink:href="#DejaVuSans-68"/>
    </g>
   </g>
   <g id="text_17">
    <!-- orf1ab:I2230T -->
    <g style="fill:#2ca02c;" transform="translate(1858.796407 240.513274)scale(0.2 -0.2)">
     <use xlink:href="#DejaVuSans-111"/>
     <use x="61.181641" xlink:href="#DejaVuSans-114"/>
     <use x="102.294922" xlink:href="#DejaVuSans-102"/>
     <use x="137.5" xlink:href="#DejaVuSans-49"/>
     <use x="201.123047" xlink:href="#DejaVuSans-97"/>
     <use x="262.402344" xlink:href="#DejaVuSans-98"/>
     <use x="325.878906" xlink:href="#DejaVuSans-58"/>
     <use x="359.570312" xlink:href="#DejaVuSans-73"/>
     <use x="389.0625" xlink:href="#DejaVuSans-50"/>
     <use x="452.685547" xlink:href="#DejaVuSans-50"/>
     <use x="516.308594" xlink:href="#DejaVuSans-51"/>
     <use x="579.931641" xlink:href="#DejaVuSans-48"/>
     <use x="643.554688" xlink:href="#DejaVuSans-84"/>
    </g>
   </g>
   <g id="text_18">
    <!-- S:N501Y -->
    <g style="fill:#d62728;" transform="translate(1867.909091 312.091117)scale(0.2 -0.2)">
     <defs>
      <path d="M -0.203125 72.90625 
L 10.40625 72.90625 
L 30.609375 42.921875 
L 50.6875 72.90625 
L 61.28125 72.90625 
L 35.5 34.71875 
L 35.5 0 
L 25.59375 0 
L 25.59375 34.71875 
z
" id="DejaVuSans-89"/>
     </defs>
     <use xlink:href="#DejaVuSans-83"/>
     <use x="63.476562" xlink:href="#DejaVuSans-58"/>
     <use x="97.167969" xlink:href="#DejaVuSans-78"/>
     <use x="171.972656" xlink:href="#DejaVuSans-53"/>
     <use x="235.595703" xlink:href="#DejaVuSans-48"/>
     <use x="299.21875" xlink:href="#DejaVuSans-49"/>
     <use x="362.841797" xlink:href="#DejaVuSans-89"/>
    </g>
   </g>
   <g id="text_19">
    <!-- S:A570D -->
    <g style="fill:#9467bd;" transform="translate(1858.796407 189.319005)scale(0.2 -0.2)">
     <use xlink:href="#DejaVuSans-83"/>
     <use x="63.476562" xlink:href="#DejaVuSans-58"/>
     <use x="97.167969" xlink:href="#DejaVuSans-65"/>
     <use x="165.576172" xlink:href="#DejaVuSans-53"/>
     <use x="229.199219" xlink:href="#DejaVuSans-55"/>
     <use x="292.822266" xlink:href="#DejaVuSans-48"/>
     <use x="356.445312" xlink:href="#DejaVuSans-68"/>
    </g>
   </g>
   <g id="text_20">
    <!-- S:P681H -->
    <g style="fill:#8c564b;" transform="translate(1858.796407 241.434863)scale(0.2 -0.2)">
     <defs>
      <path d="M 33.015625 40.375 
Q 26.375 40.375 22.484375 35.828125 
Q 18.609375 31.296875 18.609375 23.390625 
Q 18.609375 15.53125 22.484375 10.953125 
Q 26.375 6.390625 33.015625 6.390625 
Q 39.65625 6.390625 43.53125 10.953125 
Q 47.40625 15.53125 47.40625 23.390625 
Q 47.40625 31.296875 43.53125 35.828125 
Q 39.65625 40.375 33.015625 40.375 
z
M 52.59375 71.296875 
L 52.59375 62.3125 
Q 48.875 64.0625 45.09375 64.984375 
Q 41.3125 65.921875 37.59375 65.921875 
Q 27.828125 65.921875 22.671875 59.328125 
Q 17.53125 52.734375 16.796875 39.40625 
Q 19.671875 43.65625 24.015625 45.921875 
Q 28.375 48.1875 33.59375 48.1875 
Q 44.578125 48.1875 50.953125 41.515625 
Q 57.328125 34.859375 57.328125 23.390625 
Q 57.328125 12.15625 50.6875 5.359375 
Q 44.046875 -1.421875 33.015625 -1.421875 
Q 20.359375 -1.421875 13.671875 8.265625 
Q 6.984375 17.96875 6.984375 36.375 
Q 6.984375 53.65625 15.1875 63.9375 
Q 23.390625 74.21875 37.203125 74.21875 
Q 40.921875 74.21875 44.703125 73.484375 
Q 48.484375 72.75 52.59375 71.296875 
z
" id="DejaVuSans-54"/>
      <path d="M 9.8125 72.90625 
L 19.671875 72.90625 
L 19.671875 43.015625 
L 55.515625 43.015625 
L 55.515625 72.90625 
L 65.375 72.90625 
L 65.375 0 
L 55.515625 0 
L 55.515625 34.71875 
L 19.671875 34.71875 
L 19.671875 0 
L 9.8125 0 
z
" id="DejaVuSans-72"/>
     </defs>
     <use xlink:href="#DejaVuSans-83"/>
     <use x="63.476562" xlink:href="#DejaVuSans-58"/>
     <use x="97.167969" xlink:href="#DejaVuSans-80"/>
     <use x="157.470703" xlink:href="#DejaVuSans-54"/>
     <use x="221.09375" xlink:href="#DejaVuSans-56"/>
     <use x="284.716797" xlink:href="#DejaVuSans-49"/>
     <use x="348.339844" xlink:href="#DejaVuSans-72"/>
    </g>
   </g>
   <g id="text_21">
    <!-- S:T716I -->
    <g style="fill:#e377c2;" transform="translate(1858.796407 188.397416)scale(0.2 -0.2)">
     <use xlink:href="#DejaVuSans-83"/>
     <use x="63.476562" xlink:href="#DejaVuSans-58"/>
     <use x="97.167969" xlink:href="#DejaVuSans-84"/>
     <use x="158.251953" xlink:href="#DejaVuSans-55"/>
     <use x="221.875" xlink:href="#DejaVuSans-49"/>
     <use x="285.498047" xlink:href="#DejaVuSans-54"/>
     <use x="349.121094" xlink:href="#DejaVuSans-73"/>
    </g>
   </g>
   <g id="text_22">
    <!-- S:S982A -->
    <g style="fill:#7f7f7f;" transform="translate(1858.796407 137.203146)scale(0.2 -0.2)">
     <use xlink:href="#DejaVuSans-83"/>
     <use x="63.476562" xlink:href="#DejaVuSans-58"/>
     <use x="97.167969" xlink:href="#DejaVuSans-83"/>
     <use x="160.644531" xlink:href="#DejaVuSans-57"/>
     <use x="224.267578" xlink:href="#DejaVuSans-56"/>
     <use x="287.890625" xlink:href="#DejaVuSans-50"/>
     <use x="351.513672" xlink:href="#DejaVuSans-65"/>
    </g>
   </g>
   <g id="text_23">
    <!-- S:D1118H -->
    <g style="fill:#bcbd22;" transform="translate(1858.796407 238.670096)scale(0.2 -0.2)">
     <use xlink:href="#DejaVuSans-83"/>
     <use x="63.476562" xlink:href="#DejaVuSans-58"/>
     <use x="97.167969" xlink:href="#DejaVuSans-68"/>
     <use x="174.169922" xlink:href="#DejaVuSans-49"/>
     <use x="237.792969" xlink:href="#DejaVuSans-49"/>
     <use x="301.416016" xlink:href="#DejaVuSans-49"/>
     <use x="365.039062" xlink:href="#DejaVuSans-56"/>
     <use x="428.662109" xlink:href="#DejaVuSans-72"/>
    </g>
   </g>
   <g id="text_24">
    <!-- ORF8:Q27* -->
    <g style="fill:#17becf;" transform="translate(1858.796407 254.337109)scale(0.2 -0.2)">
     <defs>
      <path d="M 39.40625 66.21875 
Q 28.65625 66.21875 22.328125 58.203125 
Q 16.015625 50.203125 16.015625 36.375 
Q 16.015625 22.609375 22.328125 14.59375 
Q 28.65625 6.59375 39.40625 6.59375 
Q 50.140625 6.59375 56.421875 14.59375 
Q 62.703125 22.609375 62.703125 36.375 
Q 62.703125 50.203125 56.421875 58.203125 
Q 50.140625 66.21875 39.40625 66.21875 
z
M 39.40625 74.21875 
Q 54.734375 74.21875 63.90625 63.9375 
Q 73.09375 53.65625 73.09375 36.375 
Q 73.09375 19.140625 63.90625 8.859375 
Q 54.734375 -1.421875 39.40625 -1.421875 
Q 24.03125 -1.421875 14.8125 8.828125 
Q 5.609375 19.09375 5.609375 36.375 
Q 5.609375 53.65625 14.8125 63.9375 
Q 24.03125 74.21875 39.40625 74.21875 
z
" id="DejaVuSans-79"/>
      <path d="M 44.390625 34.1875 
Q 47.5625 33.109375 50.5625 29.59375 
Q 53.5625 26.078125 56.59375 19.921875 
L 66.609375 0 
L 56 0 
L 46.6875 18.703125 
Q 43.0625 26.03125 39.671875 28.421875 
Q 36.28125 30.8125 30.421875 30.8125 
L 19.671875 30.8125 
L 19.671875 0 
L 9.8125 0 
L 9.8125 72.90625 
L 32.078125 72.90625 
Q 44.578125 72.90625 50.734375 67.671875 
Q 56.890625 62.453125 56.890625 51.90625 
Q 56.890625 45.015625 53.6875 40.46875 
Q 50.484375 35.9375 44.390625 34.1875 
z
M 19.671875 64.796875 
L 19.671875 38.921875 
L 32.078125 38.921875 
Q 39.203125 38.921875 42.84375 42.21875 
Q 46.484375 45.515625 46.484375 51.90625 
Q 46.484375 58.296875 42.84375 61.546875 
Q 39.203125 64.796875 32.078125 64.796875 
z
" id="DejaVuSans-82"/>
      <path d="M 39.40625 66.21875 
Q 28.65625 66.21875 22.328125 58.203125 
Q 16.015625 50.203125 16.015625 36.375 
Q 16.015625 22.609375 22.328125 14.59375 
Q 28.65625 6.59375 39.40625 6.59375 
Q 50.140625 6.59375 56.421875 14.59375 
Q 62.703125 22.609375 62.703125 36.375 
Q 62.703125 50.203125 56.421875 58.203125 
Q 50.140625 66.21875 39.40625 66.21875 
z
M 53.21875 1.3125 
L 66.21875 -12.890625 
L 54.296875 -12.890625 
L 43.5 -1.21875 
Q 41.890625 -1.3125 41.03125 -1.359375 
Q 40.1875 -1.421875 39.40625 -1.421875 
Q 24.03125 -1.421875 14.8125 8.859375 
Q 5.609375 19.140625 5.609375 36.375 
Q 5.609375 53.65625 14.8125 63.9375 
Q 24.03125 74.21875 39.40625 74.21875 
Q 54.734375 74.21875 63.90625 63.9375 
Q 73.09375 53.65625 73.09375 36.375 
Q 73.09375 23.6875 67.984375 14.640625 
Q 62.890625 5.609375 53.21875 1.3125 
z
" id="DejaVuSans-81"/>
      <path d="M 47.015625 60.890625 
L 29.5 51.421875 
L 47.015625 41.890625 
L 44.1875 37.109375 
L 27.78125 47.015625 
L 27.78125 28.609375 
L 22.21875 28.609375 
L 22.21875 47.015625 
L 5.8125 37.109375 
L 2.984375 41.890625 
L 20.515625 51.421875 
L 2.984375 60.890625 
L 5.8125 65.71875 
L 22.21875 55.8125 
L 22.21875 74.21875 
L 27.78125 74.21875 
L 27.78125 55.8125 
L 44.1875 65.71875 
z
" id="DejaVuSans-42"/>
     </defs>
     <use xlink:href="#DejaVuSans-79"/>
     <use x="78.710938" xlink:href="#DejaVuSans-82"/>
     <use x="148.193359" xlink:href="#DejaVuSans-70"/>
     <use x="205.712891" xlink:href="#DejaVuSans-56"/>
     <use x="269.335938" xlink:href="#DejaVuSans-58"/>
     <use x="303.027344" xlink:href="#DejaVuSans-81"/>
     <use x="381.738281" xlink:href="#DejaVuSans-50"/>
     <use x="445.361328" xlink:href="#DejaVuSans-55"/>
     <use x="508.984375" xlink:href="#DejaVuSans-42"/>
    </g>
   </g>
   <g id="text_25">
    <!-- ORF8:R52I -->
    <g style="fill:#1f77b4;" transform="translate(1858.796407 203.14284)scale(0.2 -0.2)">
     <use xlink:href="#DejaVuSans-79"/>
     <use x="78.710938" xlink:href="#DejaVuSans-82"/>
     <use x="148.193359" xlink:href="#DejaVuSans-70"/>
     <use x="205.712891" xlink:href="#DejaVuSans-56"/>
     <use x="269.335938" xlink:href="#DejaVuSans-58"/>
     <use x="303.027344" xlink:href="#DejaVuSans-82"/>
     <use x="372.509766" xlink:href="#DejaVuSans-53"/>
     <use x="436.132812" xlink:href="#DejaVuSans-50"/>
     <use x="499.755859" xlink:href="#DejaVuSans-73"/>
    </g>
   </g>
   <g id="text_26">
    <!-- ORF8:Y73C -->
    <g style="fill:#ff7f0e;" transform="translate(1858.796407 151.948571)scale(0.2 -0.2)">
     <defs>
      <path d="M 64.40625 67.28125 
L 64.40625 56.890625 
Q 59.421875 61.53125 53.78125 63.8125 
Q 48.140625 66.109375 41.796875 66.109375 
Q 29.296875 66.109375 22.65625 58.46875 
Q 16.015625 50.828125 16.015625 36.375 
Q 16.015625 21.96875 22.65625 14.328125 
Q 29.296875 6.6875 41.796875 6.6875 
Q 48.140625 6.6875 53.78125 8.984375 
Q 59.421875 11.28125 64.40625 15.921875 
L 64.40625 5.609375 
Q 59.234375 2.09375 53.4375 0.328125 
Q 47.65625 -1.421875 41.21875 -1.421875 
Q 24.65625 -1.421875 15.125 8.703125 
Q 5.609375 18.84375 5.609375 36.375 
Q 5.609375 53.953125 15.125 64.078125 
Q 24.65625 74.21875 41.21875 74.21875 
Q 47.75 74.21875 53.53125 72.484375 
Q 59.328125 70.75 64.40625 67.28125 
z
" id="DejaVuSans-67"/>
     </defs>
     <use xlink:href="#DejaVuSans-79"/>
     <use x="78.710938" xlink:href="#DejaVuSans-82"/>
     <use x="148.193359" xlink:href="#DejaVuSans-70"/>
     <use x="205.712891" xlink:href="#DejaVuSans-56"/>
     <use x="269.335938" xlink:href="#DejaVuSans-58"/>
     <use x="303.027344" xlink:href="#DejaVuSans-89"/>
     <use x="364.111328" xlink:href="#DejaVuSans-55"/>
     <use x="427.734375" xlink:href="#DejaVuSans-51"/>
     <use x="491.357422" xlink:href="#DejaVuSans-67"/>
    </g>
   </g>
   <g id="text_27">
    <!-- N:D3L -->
    <g style="fill:#2ca02c;" transform="translate(1858.796407 138.124735)scale(0.2 -0.2)">
     <defs>
      <path d="M 9.8125 72.90625 
L 19.671875 72.90625 
L 19.671875 8.296875 
L 55.171875 8.296875 
L 55.171875 0 
L 9.8125 0 
z
" id="DejaVuSans-76"/>
     </defs>
     <use xlink:href="#DejaVuSans-78"/>
     <use x="74.804688" xlink:href="#DejaVuSans-58"/>
     <use x="108.496094" xlink:href="#DejaVuSans-68"/>
     <use x="185.498047" xlink:href="#DejaVuSans-51"/>
     <use x="249.121094" xlink:href="#DejaVuSans-76"/>
    </g>
   </g>
   <g id="text_28">
    <!-- N:S235F -->
    <g style="fill:#d62728;" transform="translate(1858.796407 243.278041)scale(0.2 -0.2)">
     <use xlink:href="#DejaVuSans-78"/>
     <use x="74.804688" xlink:href="#DejaVuSans-58"/>
     <use x="108.496094" xlink:href="#DejaVuSans-83"/>
     <use x="171.972656" xlink:href="#DejaVuSans-50"/>
     <use x="235.595703" xlink:href="#DejaVuSans-51"/>
     <use x="299.21875" xlink:href="#DejaVuSans-53"/>
     <use x="362.841797" xlink:href="#DejaVuSans-70"/>
    </g>
   </g>
   <g id="legend_1">
    <g id="patch_7">
     <path d="M 284 513.3875 
L 499.896875 513.3875 
Q 503.896875 513.3875 503.896875 509.3875 
L 503.896875 100.4 
Q 503.896875 96.4 499.896875 96.4 
L 284 96.4 
Q 280 96.4 280 100.4 
L 280 509.3875 
Q 280 513.3875 284 513.3875 
z
" style="fill:#ffffff;opacity:0.8;stroke:#cccccc;stroke-linejoin:miter;"/>
    </g>
    <g id="line2d_27">
     <path d="M 288 112.596875 
L 328 112.596875 
" style="fill:none;stroke:#1f77b4;stroke-linecap:square;stroke-width:2;"/>
    </g>
    <g id="line2d_28"/>
    <g id="text_29">
     <!-- orf1ab:T1001I -->
     <g transform="translate(344 119.596875)scale(0.2 -0.2)">
      <use xlink:href="#DejaVuSans-111"/>
      <use x="61.181641" xlink:href="#DejaVuSans-114"/>
      <use x="102.294922" xlink:href="#DejaVuSans-102"/>
      <use x="137.5" xlink:href="#DejaVuSans-49"/>
      <use x="201.123047" xlink:href="#DejaVuSans-97"/>
      <use x="262.402344" xlink:href="#DejaVuSans-98"/>
      <use x="325.878906" xlink:href="#DejaVuSans-58"/>
      <use x="359.570312" xlink:href="#DejaVuSans-84"/>
      <use x="420.654297" xlink:href="#DejaVuSans-49"/>
      <use x="484.277344" xlink:href="#DejaVuSans-48"/>
      <use x="547.900391" xlink:href="#DejaVuSans-48"/>
      <use x="611.523438" xlink:href="#DejaVuSans-49"/>
      <use x="675.146484" xlink:href="#DejaVuSans-73"/>
     </g>
    </g>
    <g id="line2d_29">
     <path d="M 288 141.953125 
L 328 141.953125 
" style="fill:none;stroke:#ff7f0e;stroke-linecap:square;stroke-width:2;"/>
    </g>
    <g id="line2d_30"/>
    <g id="text_30">
     <!-- orf1ab:A1708D -->
     <g transform="translate(344 148.953125)scale(0.2 -0.2)">
      <use xlink:href="#DejaVuSans-111"/>
      <use x="61.181641" xlink:href="#DejaVuSans-114"/>
      <use x="102.294922" xlink:href="#DejaVuSans-102"/>
      <use x="137.5" xlink:href="#DejaVuSans-49"/>
      <use x="201.123047" xlink:href="#DejaVuSans-97"/>
      <use x="262.402344" xlink:href="#DejaVuSans-98"/>
      <use x="325.878906" xlink:href="#DejaVuSans-58"/>
      <use x="359.570312" xlink:href="#DejaVuSans-65"/>
      <use x="427.978516" xlink:href="#DejaVuSans-49"/>
      <use x="491.601562" xlink:href="#DejaVuSans-55"/>
      <use x="555.224609" xlink:href="#DejaVuSans-48"/>
      <use x="618.847656" xlink:href="#DejaVuSans-56"/>
      <use x="682.470703" xlink:href="#DejaVuSans-68"/>
     </g>
    </g>
    <g id="line2d_31">
     <path d="M 288 171.309375 
L 328 171.309375 
" style="fill:none;stroke:#2ca02c;stroke-linecap:square;stroke-width:2;"/>
    </g>
    <g id="line2d_32"/>
    <g id="text_31">
     <!-- orf1ab:I2230T -->
     <g transform="translate(344 178.309375)scale(0.2 -0.2)">
      <use xlink:href="#DejaVuSans-111"/>
      <use x="61.181641" xlink:href="#DejaVuSans-114"/>
      <use x="102.294922" xlink:href="#DejaVuSans-102"/>
      <use x="137.5" xlink:href="#DejaVuSans-49"/>
      <use x="201.123047" xlink:href="#DejaVuSans-97"/>
      <use x="262.402344" xlink:href="#DejaVuSans-98"/>
      <use x="325.878906" xlink:href="#DejaVuSans-58"/>
      <use x="359.570312" xlink:href="#DejaVuSans-73"/>
      <use x="389.0625" xlink:href="#DejaVuSans-50"/>
      <use x="452.685547" xlink:href="#DejaVuSans-50"/>
      <use x="516.308594" xlink:href="#DejaVuSans-51"/>
      <use x="579.931641" xlink:href="#DejaVuSans-48"/>
      <use x="643.554688" xlink:href="#DejaVuSans-84"/>
     </g>
    </g>
    <g id="line2d_33">
     <path d="M 288 200.665625 
L 328 200.665625 
" style="fill:none;stroke:#d62728;stroke-linecap:square;stroke-width:2;"/>
    </g>
    <g id="line2d_34"/>
    <g id="text_32">
     <!-- S:N501Y -->
     <g transform="translate(344 207.665625)scale(0.2 -0.2)">
      <use xlink:href="#DejaVuSans-83"/>
      <use x="63.476562" xlink:href="#DejaVuSans-58"/>
      <use x="97.167969" xlink:href="#DejaVuSans-78"/>
      <use x="171.972656" xlink:href="#DejaVuSans-53"/>
      <use x="235.595703" xlink:href="#DejaVuSans-48"/>
      <use x="299.21875" xlink:href="#DejaVuSans-49"/>
      <use x="362.841797" xlink:href="#DejaVuSans-89"/>
     </g>
    </g>
    <g id="line2d_35">
     <path d="M 288 230.021875 
L 328 230.021875 
" style="fill:none;stroke:#9467bd;stroke-linecap:square;stroke-width:2;"/>
    </g>
    <g id="line2d_36"/>
    <g id="text_33">
     <!-- S:A570D -->
     <g transform="translate(344 237.021875)scale(0.2 -0.2)">
      <use xlink:href="#DejaVuSans-83"/>
      <use x="63.476562" xlink:href="#DejaVuSans-58"/>
      <use x="97.167969" xlink:href="#DejaVuSans-65"/>
      <use x="165.576172" xlink:href="#DejaVuSans-53"/>
      <use x="229.199219" xlink:href="#DejaVuSans-55"/>
      <use x="292.822266" xlink:href="#DejaVuSans-48"/>
      <use x="356.445312" xlink:href="#DejaVuSans-68"/>
     </g>
    </g>
    <g id="line2d_37">
     <path d="M 288 259.378125 
L 328 259.378125 
" style="fill:none;stroke:#8c564b;stroke-linecap:square;stroke-width:2;"/>
    </g>
    <g id="line2d_38"/>
    <g id="text_34">
     <!-- S:P681H -->
     <g transform="translate(344 266.378125)scale(0.2 -0.2)">
      <use xlink:href="#DejaVuSans-83"/>
      <use x="63.476562" xlink:href="#DejaVuSans-58"/>
      <use x="97.167969" xlink:href="#DejaVuSans-80"/>
      <use x="157.470703" xlink:href="#DejaVuSans-54"/>
      <use x="221.09375" xlink:href="#DejaVuSans-56"/>
      <use x="284.716797" xlink:href="#DejaVuSans-49"/>
      <use x="348.339844" xlink:href="#DejaVuSans-72"/>
     </g>
    </g>
    <g id="line2d_39">
     <path d="M 288 288.734375 
L 328 288.734375 
" style="fill:none;stroke:#e377c2;stroke-linecap:square;stroke-width:2;"/>
    </g>
    <g id="line2d_40"/>
    <g id="text_35">
     <!-- S:T716I -->
     <g transform="translate(344 295.734375)scale(0.2 -0.2)">
      <use xlink:href="#DejaVuSans-83"/>
      <use x="63.476562" xlink:href="#DejaVuSans-58"/>
      <use x="97.167969" xlink:href="#DejaVuSans-84"/>
      <use x="158.251953" xlink:href="#DejaVuSans-55"/>
      <use x="221.875" xlink:href="#DejaVuSans-49"/>
      <use x="285.498047" xlink:href="#DejaVuSans-54"/>
      <use x="349.121094" xlink:href="#DejaVuSans-73"/>
     </g>
    </g>
    <g id="line2d_41">
     <path d="M 288 318.090625 
L 328 318.090625 
" style="fill:none;stroke:#7f7f7f;stroke-linecap:square;stroke-width:2;"/>
    </g>
    <g id="line2d_42"/>
    <g id="text_36">
     <!-- S:S982A -->
     <g transform="translate(344 325.090625)scale(0.2 -0.2)">
      <use xlink:href="#DejaVuSans-83"/>
      <use x="63.476562" xlink:href="#DejaVuSans-58"/>
      <use x="97.167969" xlink:href="#DejaVuSans-83"/>
      <use x="160.644531" xlink:href="#DejaVuSans-57"/>
      <use x="224.267578" xlink:href="#DejaVuSans-56"/>
      <use x="287.890625" xlink:href="#DejaVuSans-50"/>
      <use x="351.513672" xlink:href="#DejaVuSans-65"/>
     </g>
    </g>
    <g id="line2d_43">
     <path d="M 288 347.446875 
L 328 347.446875 
" style="fill:none;stroke:#bcbd22;stroke-linecap:square;stroke-width:2;"/>
    </g>
    <g id="line2d_44"/>
    <g id="text_37">
     <!-- S:D1118H -->
     <g transform="translate(344 354.446875)scale(0.2 -0.2)">
      <use xlink:href="#DejaVuSans-83"/>
      <use x="63.476562" xlink:href="#DejaVuSans-58"/>
      <use x="97.167969" xlink:href="#DejaVuSans-68"/>
      <use x="174.169922" xlink:href="#DejaVuSans-49"/>
      <use x="237.792969" xlink:href="#DejaVuSans-49"/>
      <use x="301.416016" xlink:href="#DejaVuSans-49"/>
      <use x="365.039062" xlink:href="#DejaVuSans-56"/>
      <use x="428.662109" xlink:href="#DejaVuSans-72"/>
     </g>
    </g>
    <g id="line2d_45">
     <path d="M 288 376.803125 
L 328 376.803125 
" style="fill:none;stroke:#17becf;stroke-linecap:square;stroke-width:2;"/>
    </g>
    <g id="line2d_46"/>
    <g id="text_38">
     <!-- ORF8:Q27* -->
     <g transform="translate(344 383.803125)scale(0.2 -0.2)">
      <use xlink:href="#DejaVuSans-79"/>
      <use x="78.710938" xlink:href="#DejaVuSans-82"/>
      <use x="148.193359" xlink:href="#DejaVuSans-70"/>
      <use x="205.712891" xlink:href="#DejaVuSans-56"/>
      <use x="269.335938" xlink:href="#DejaVuSans-58"/>
      <use x="303.027344" xlink:href="#DejaVuSans-81"/>
      <use x="381.738281" xlink:href="#DejaVuSans-50"/>
      <use x="445.361328" xlink:href="#DejaVuSans-55"/>
      <use x="508.984375" xlink:href="#DejaVuSans-42"/>
     </g>
    </g>
    <g id="line2d_47">
     <path d="M 288 406.159375 
L 328 406.159375 
" style="fill:none;stroke:#1f77b4;stroke-linecap:square;stroke-width:2;"/>
    </g>
    <g id="line2d_48"/>
    <g id="text_39">
     <!-- ORF8:R52I -->
     <g transform="translate(344 413.159375)scale(0.2 -0.2)">
      <use xlink:href="#DejaVuSans-79"/>
      <use x="78.710938" xlink:href="#DejaVuSans-82"/>
      <use x="148.193359" xlink:href="#DejaVuSans-70"/>
      <use x="205.712891" xlink:href="#DejaVuSans-56"/>
      <use x="269.335938" xlink:href="#DejaVuSans-58"/>
      <use x="303.027344" xlink:href="#DejaVuSans-82"/>
      <use x="372.509766" xlink:href="#DejaVuSans-53"/>
      <use x="436.132812" xlink:href="#DejaVuSans-50"/>
      <use x="499.755859" xlink:href="#DejaVuSans-73"/>
     </g>
    </g>
    <g id="line2d_49">
     <path d="M 288 435.515625 
L 328 435.515625 
" style="fill:none;stroke:#ff7f0e;stroke-linecap:square;stroke-width:2;"/>
    </g>
    <g id="line2d_50"/>
    <g id="text_40">
     <!-- ORF8:Y73C -->
     <g transform="translate(344 442.515625)scale(0.2 -0.2)">
      <use xlink:href="#DejaVuSans-79"/>
      <use x="78.710938" xlink:href="#DejaVuSans-82"/>
      <use x="148.193359" xlink:href="#DejaVuSans-70"/>
      <use x="205.712891" xlink:href="#DejaVuSans-56"/>
      <use x="269.335938" xlink:href="#DejaVuSans-58"/>
      <use x="303.027344" xlink:href="#DejaVuSans-89"/>
      <use x="364.111328" xlink:href="#DejaVuSans-55"/>
      <use x="427.734375" xlink:href="#DejaVuSans-51"/>
      <use x="491.357422" xlink:href="#DejaVuSans-67"/>
     </g>
    </g>
    <g id="line2d_51">
     <path d="M 288 464.871875 
L 328 464.871875 
" style="fill:none;stroke:#2ca02c;stroke-linecap:square;stroke-width:2;"/>
    </g>
    <g id="line2d_52"/>
    <g id="text_41">
     <!-- N:D3L -->
     <g transform="translate(344 471.871875)scale(0.2 -0.2)">
      <use xlink:href="#DejaVuSans-78"/>
      <use x="74.804688" xlink:href="#DejaVuSans-58"/>
      <use x="108.496094" xlink:href="#DejaVuSans-68"/>
      <use x="185.498047" xlink:href="#DejaVuSans-51"/>
      <use x="249.121094" xlink:href="#DejaVuSans-76"/>
     </g>
    </g>
    <g id="line2d_53">
     <path d="M 288 494.228125 
L 328 494.228125 
" style="fill:none;stroke:#d62728;stroke-linecap:square;stroke-width:2;"/>
    </g>
    <g id="line2d_54"/>
    <g id="text_42">
     <!-- N:S235F -->
     <g transform="translate(344 501.228125)scale(0.2 -0.2)">
      <use xlink:href="#DejaVuSans-78"/>
      <use x="74.804688" xlink:href="#DejaVuSans-58"/>
      <use x="108.496094" xlink:href="#DejaVuSans-83"/>
      <use x="171.972656" xlink:href="#DejaVuSans-50"/>
      <use x="235.595703" xlink:href="#DejaVuSans-51"/>
      <use x="299.21875" xlink:href="#DejaVuSans-53"/>
      <use x="362.841797" xlink:href="#DejaVuSans-70"/>
     </g>
    </g>
   </g>
  </g>
 </g>
 <defs>
  <clipPath id="p237ed373b2">
   <rect height="554.4" width="1674" x="270" y="86.4"/>
  </clipPath>
 </defs>
</svg>
